<?xml version="1.0" encoding="UTF-8" standalone="no"?>
<svg
   xmlns:dc="http://purl.org/dc/elements/1.1/"
   xmlns:cc="http://creativecommons.org/ns#"
   xmlns:rdf="http://www.w3.org/1999/02/22-rdf-syntax-ns#"
   xmlns:svg="http://www.w3.org/2000/svg"
   xmlns="http://www.w3.org/2000/svg"
   viewBox="0 0 310.452 75.043999"
   height="75.043999"
   width="310.452"
   style="background-color: white;"
   xml:space="preserve"
   id="svg2"
   version="1.1"><metadata
     id="metadata8"><rdf:RDF><cc:Work
         rdf:about=""><dc:format>image/svg+xml</dc:format><dc:type
           rdf:resource="http://purl.org/dc/dcmitype/StillImage" /></cc:Work></rdf:RDF></metadata><defs
     id="defs6" /><g
     transform="matrix(1.3333333,0,0,-1.3333333,0,75.044)"
     id="g10"><g
       transform="translate(45.553,33.811)"
       id="g12"><g
         id="g14"><g
           id="g16"><g
             id="g18"><path
               id="path20"
               style="fill:none;stroke:#000000;stroke-width:0.3985;stroke-linecap:butt;stroke-linejoin:miter;stroke-miterlimit:10;stroke-dasharray:none;stroke-opacity:1"
               d="M -28.3468,0 H 28.3468" /><path
               id="path22"
               style="fill:none;stroke:#000000;stroke-width:0.3985;stroke-linecap:butt;stroke-linejoin:miter;stroke-miterlimit:10;stroke-dasharray:none;stroke-opacity:1"
               d="M -39.68535,14.17339 -28.3468,0" /><path
               id="path24"
               style="fill:none;stroke:#000000;stroke-width:0.3985;stroke-linecap:butt;stroke-linejoin:miter;stroke-miterlimit:10;stroke-dasharray:none;stroke-opacity:1"
               d="M 39.68535,14.17339 28.3468,0" /><path
               id="path26"
               style="fill:#000000;fill-opacity:1;fill-rule:nonzero;stroke:none"
               d="m -26.35425,0 c 0,1.10046 -0.89209,1.99255 -1.99255,1.99255 -1.10048,0 -1.99256,-0.89209 -1.99256,-1.99255 0,-1.10046 0.89208,-1.99255 1.99256,-1.99255 1.10046,0 1.99255,0.89209 1.99255,1.99255 z" /><path
               id="path28"
               style="fill:#000000;fill-opacity:1;fill-rule:nonzero;stroke:none"
               d="m 30.33936,0 c 0,1.10046 -0.89208,1.99255 -1.99256,1.99255 -1.10046,0 -1.99255,-0.89209 -1.99255,-1.99255 0,-1.10046 0.89209,-1.99255 1.99255,-1.99255 1.10048,0 1.99256,0.89209 1.99256,1.99255 z" /><g
               id="g30"><g
                 transform="translate(-32.082,-10.328)"
                 id="g32"><g
                   id="g34"><g
                     transform="translate(-13.471,-23.483)"
                     id="g36"><text
                       id="text40"
                       style="font-variant:normal;font-weight:normal;font-size:9.96259975px;font-family:CMR10;-inkscape-font-specification:CMR10;writing-mode:lr-tb;fill:#000000;fill-opacity:1;fill-rule:nonzero;stroke:none"
                       transform="matrix(1,0,0,-1,13.471,23.483)"><tspan
                         id="tspan38"
                         y="0"
                         x="0">A</tspan></text>
<g
                       transform="translate(13.471,23.483)"
                       id="g42" /></g></g><g
                   transform="translate(32.082,10.328)"
                   id="g44" /></g></g><g
               id="g46"><g
                 transform="translate(24.818,-10.328)"
                 id="g48"><g
                   id="g50"><g
                     transform="translate(-70.371,-23.483)"
                     id="g52"><text
                       id="text56"
                       style="font-variant:normal;font-weight:normal;font-size:9.96259975px;font-family:CMR10;-inkscape-font-specification:CMR10;writing-mode:lr-tb;fill:#000000;fill-opacity:1;fill-rule:nonzero;stroke:none"
                       transform="matrix(1,0,0,-1,70.371,23.483)"><tspan
                         id="tspan54"
                         y="0"
                         x="0">B</tspan></text>
<g
                       transform="translate(70.371,23.483)"
                       id="g58" /></g></g><g
                   transform="translate(-24.818,10.328)"
                   id="g60" /></g></g></g><path
             id="path62"
             style="fill:none;stroke:#000000;stroke-width:0.3985;stroke-linecap:butt;stroke-linejoin:miter;stroke-miterlimit:10;stroke-dasharray:none;stroke-opacity:1"
             d="M 56.69362,0 H 84.58214" /><g
             transform="translate(84.58214)"
             id="g64"><g
               id="g66"><path
                 id="path68"
                 style="fill:none;stroke:#000000;stroke-width:0.31878999;stroke-linecap:round;stroke-linejoin:round;stroke-miterlimit:10;stroke-dasharray:none;stroke-opacity:1"
                 d="M -1.19551,1.59401 C -1.09587,0.99626 0,0.09961 0.29886,0 0,-0.09961 -1.09587,-0.99626 -1.19551,-1.59401" /></g></g><g
             id="g70"><g
               transform="translate(64.501,6.01)"
               id="g72"><g
                 id="g74"><g
                   transform="translate(-110.054,-39.821)"
                   id="g76"><text
                     id="text80"
                     style="font-variant:normal;font-weight:normal;font-size:9.96259975px;font-family:CMR10;-inkscape-font-specification:CMR10;writing-mode:lr-tb;fill:#000000;fill-opacity:1;fill-rule:nonzero;stroke:none"
                     transform="matrix(1,0,0,-1,110.054,39.821)"><tspan
                       id="tspan78"
                       y="0"
                       x="0 3.8744552 8.8557549">(1)</tspan></text>
<g
                     transform="translate(110.054,39.821)"
                     id="g82" /></g></g><g
                 transform="translate(-64.501,-6.01)"
                 id="g84" /></g></g><path
             id="path86"
             style="fill:none;stroke:#000000;stroke-width:0.3985;stroke-linecap:butt;stroke-linejoin:miter;stroke-miterlimit:10;stroke-dasharray:none;stroke-opacity:1"
             d="M 57.15189,-11.33855 H 85.04042" /><g
             transform="rotate(180,28.575945,-5.669275)"
             id="g88"><g
               id="g90"><path
                 id="path92"
                 style="fill:none;stroke:#000000;stroke-width:0.31878999;stroke-linecap:round;stroke-linejoin:round;stroke-miterlimit:10;stroke-dasharray:none;stroke-opacity:1"
                 d="M -1.19551,1.59401 C -1.09587,0.99626 0,0.09961 0.29886,0 0,-0.09961 -1.09587,-0.99626 -1.19551,-1.59401" /></g></g><g
             id="g94"><g
               transform="translate(63.118,-22.331)"
               id="g96"><g
                 id="g98"><g
                   transform="translate(-108.671,-11.48)"
                   id="g100"><text
                     id="text104"
                     style="font-variant:normal;font-weight:normal;font-size:9.96259975px;font-family:CMR10;-inkscape-font-specification:CMR10;writing-mode:lr-tb;fill:#000000;fill-opacity:1;fill-rule:nonzero;stroke:none"
                     transform="matrix(1,0,0,-1,108.671,11.48)"><tspan
                       id="tspan102"
                       y="0"
                       x="0 3.8744552 8.8557549 12.73021">(1)’</tspan></text>
<g
                     transform="translate(108.671,11.48)"
                     id="g106" /></g></g><g
                 transform="translate(-63.118,22.331)"
                 id="g108" /></g></g><g
             id="g110"><path
               id="path112"
               style="fill:none;stroke:#000000;stroke-width:0.3985;stroke-linecap:butt;stroke-linejoin:miter;stroke-miterlimit:10;stroke-dasharray:none;stroke-opacity:1"
               d="m 113.3873,0 h 28.3468 28.34682" /><path
               id="path114"
               style="fill:none;stroke:#000000;stroke-width:0.3985;stroke-linecap:butt;stroke-linejoin:miter;stroke-miterlimit:10;stroke-dasharray:none;stroke-opacity:1"
               d="M 102.04875,14.17339 113.3873,0" /><path
               id="path116"
               style="fill:none;stroke:#000000;stroke-width:0.3985;stroke-linecap:butt;stroke-linejoin:miter;stroke-miterlimit:10;stroke-dasharray:none;stroke-opacity:1"
               d="M 181.41946,14.17339 170.08092,0" /><path
               id="path118"
               style="fill:#000000;fill-opacity:1;fill-rule:nonzero;stroke:none"
               d="m 115.37985,0 c 0,1.10046 -0.89209,1.99255 -1.99255,1.99255 -1.10048,0 -1.99256,-0.89209 -1.99256,-1.99255 0,-1.10046 0.89208,-1.99255 1.99256,-1.99255 1.10046,0 1.99255,0.89209 1.99255,1.99255 z" /><path
               id="path120"
               style="fill:#000000;fill-opacity:1;fill-rule:nonzero;stroke:none"
               d="m 143.72665,0 c 0,1.10046 -0.89207,1.99255 -1.99255,1.99255 -1.10046,0 -1.99255,-0.89209 -1.99255,-1.99255 0,-1.10046 0.89209,-1.99255 1.99255,-1.99255 1.10048,0 1.99255,0.89209 1.99255,1.99255 z" /><path
               id="path122"
               style="fill:#000000;fill-opacity:1;fill-rule:nonzero;stroke:none"
               d="m 172.07347,0 c 0,1.10046 -0.89209,1.99255 -1.99255,1.99255 -1.10048,0 -1.99256,-0.89209 -1.99256,-1.99255 0,-1.10046 0.89208,-1.99255 1.99256,-1.99255 1.10046,0 1.99255,0.89209 1.99255,1.99255 z" /><g
               id="g124"><g
                 transform="translate(109.65,-10.328)"
                 id="g126"><g
                   id="g128"><g
                     transform="translate(-155.203,-23.483)"
                     id="g130"><text
                       id="text134"
                       style="font-variant:normal;font-weight:normal;font-size:9.96259975px;font-family:CMR10;-inkscape-font-specification:CMR10;writing-mode:lr-tb;fill:#000000;fill-opacity:1;fill-rule:nonzero;stroke:none"
                       transform="matrix(1,0,0,-1,155.203,23.483)"><tspan
                         id="tspan132"
                         y="0"
                         x="0">A</tspan></text>
<g
                       transform="translate(155.203,23.483)"
                       id="g136" /></g></g><g
                   transform="translate(-109.65,10.328)"
                   id="g138" /></g></g><g
               id="g140"><g
                 transform="translate(138.135,-10.328)"
                 id="g142"><g
                   id="g144"><g
                     transform="translate(-183.688,-23.483)"
                     id="g146"><text
                       id="text150"
                       style="font-variant:normal;font-weight:normal;font-size:9.96259975px;font-family:CMR10;-inkscape-font-specification:CMR10;writing-mode:lr-tb;fill:#000000;fill-opacity:1;fill-rule:nonzero;stroke:none"
                       transform="matrix(1,0,0,-1,183.688,23.483)"><tspan
                         id="tspan148"
                         y="0"
                         x="0">C</tspan></text>
<g
                       transform="translate(183.688,23.483)"
                       id="g152" /></g></g><g
                   transform="translate(-138.135,10.328)"
                   id="g154" /></g></g><g
               id="g156"><g
                 transform="translate(166.551,-10.328)"
                 id="g158"><g
                   id="g160"><g
                     transform="translate(-212.104,-23.483)"
                     id="g162"><text
                       id="text166"
                       style="font-variant:normal;font-weight:normal;font-size:9.96259975px;font-family:CMR10;-inkscape-font-specification:CMR10;writing-mode:lr-tb;fill:#000000;fill-opacity:1;fill-rule:nonzero;stroke:none"
                       transform="matrix(1,0,0,-1,212.104,23.483)"><tspan
                         id="tspan164"
                         y="0"
                         x="0">B</tspan></text>
<g
                       transform="translate(212.104,23.483)"
                       id="g168" /></g></g><g
                   transform="translate(-166.551,10.328)"
                   id="g170" /></g></g></g></g></g></g></g></svg>