<?xml version="1.0" encoding="UTF-8" standalone="no"?>
<svg
   viewBox="0 0 175.448 175.448"
   height="175.448"
   width="175.448"
   style="background-color: white;"
   xml:space="preserve"
   id="svg2"
   version="1.1"
   sodipodi:docname="1-1_tangle.svg"
   inkscape:version="1.4 (1:1.4+202410161351+e7c3feb100)"
   xmlns:inkscape="http://www.inkscape.org/namespaces/inkscape"
   xmlns:sodipodi="http://sodipodi.sourceforge.net/DTD/sodipodi-0.dtd"
   xmlns="http://www.w3.org/2000/svg"
   xmlns:svg="http://www.w3.org/2000/svg"
   xmlns:rdf="http://www.w3.org/1999/02/22-rdf-syntax-ns#"
   xmlns:cc="http://creativecommons.org/ns#"
   xmlns:dc="http://purl.org/dc/elements/1.1/"><sodipodi:namedview
     id="namedview1"
     pagecolor="#ffffff"
     bordercolor="#000000"
     borderopacity="0.25"
     inkscape:showpageshadow="2"
     inkscape:pageopacity="0.0"
     inkscape:pagecheckerboard="0"
     inkscape:deskcolor="#d1d1d1"
     inkscape:zoom="9.347499"
     inkscape:cx="101.04307"
     inkscape:cy="105.05484"
     inkscape:window-width="1392"
     inkscape:window-height="1027"
     inkscape:window-x="1994"
     inkscape:window-y="16"
     inkscape:window-maximized="0"
     inkscape:current-layer="g14" /><metadata
     id="metadata8"><rdf:RDF><cc:Work
         rdf:about=""><dc:format>image/svg+xml</dc:format><dc:type
           rdf:resource="http://purl.org/dc/dcmitype/StillImage" /></cc:Work></rdf:RDF></metadata><defs
     id="defs6" /><g
     transform="matrix(1.3333333,0,0,-1.3333333,0,175.448)"
     id="g10"><g
       transform="translate(65.793,65.793)"
       id="g12"><g
         id="g14"><g
           id="g16"><path
             id="path18"
             style="fill:none;stroke:#000000;stroke-width:0.3985;stroke-linecap:butt;stroke-linejoin:miter;stroke-miterlimit:10;stroke-dasharray:none;stroke-opacity:1"
             d="m 56.69362,0 c 0,31.31142 -25.3822,56.69362 -56.69362,56.69362 -31.31142,0 -56.69362,-25.3822 -56.69362,-56.69362 0,-31.31142 25.3822,-56.69362 56.69362,-56.69362 31.31142,0 56.69362,25.3822 56.69362,56.69362 z" /><g
             id="g20" /><g
             id="g22" /><path
             id="path24"
             style="fill:#000000;fill-opacity:1;fill-rule:nonzero;stroke:none"
             d="m 15.32365,39.68533 c 0,2.20095 -1.78416,3.98511 -3.9851,3.98511 -2.20095,0 -3.98511,-1.78416 -3.98511,-3.98511 0,-2.20094 1.78416,-3.9851 3.98511,-3.9851 2.20094,0 3.9851,1.78416 3.9851,3.9851 z" /><g
             id="g26"><g
               transform="translate(14.858,43.205)"
               id="g28"><g
                 id="g30"><g
                   transform="translate(-80.651,-108.998)"
                   id="g32"><text
   id="text36"
   style="font-variant:normal;font-weight:normal;font-size:9.96259975px;font-family:CMR10;-inkscape-font-specification:CMR10;writing-mode:lr-tb;fill:#000000;fill-opacity:1;fill-rule:nonzero;stroke:none"
   transform="matrix(1,0,0,-1,80.651,108.998)"><tspan
     id="tspan34"
     y="0"
     x="0">A</tspan></text>
<g
   transform="translate(80.651,108.998)"
   id="g38" /></g></g><g
                 transform="translate(-14.858,-43.205)"
                 id="g40" /></g></g><path
             id="path42"
             style="fill:#000000;fill-opacity:1;fill-rule:nonzero;stroke:none"
             d="m 15.32365,-39.68533 c 0,2.20094 -1.78416,3.9851 -3.9851,3.9851 -2.20095,0 -3.98511,-1.78416 -3.98511,-3.9851 0,-2.20095 1.78416,-3.98511 3.98511,-3.98511 2.20094,0 3.9851,1.78416 3.9851,3.98511 z" /><g
             id="g44"><g
               transform="translate(14.858,-50.012)"
               id="g46"><g
                 id="g48"><g
                   transform="translate(-80.651,-15.781)"
                   id="g50"><text
   id="text54"
   style="font-variant:normal;font-weight:normal;font-size:9.96259975px;font-family:CMR10;-inkscape-font-specification:CMR10;writing-mode:lr-tb;fill:#000000;fill-opacity:1;fill-rule:nonzero;stroke:none"
   transform="matrix(1,0,0,-1,80.651,15.781)"><tspan
     id="tspan52"
     y="0"
     x="0">B</tspan></text>
<g
   transform="translate(80.651,15.781)"
   id="g56" /></g></g><g
                 transform="translate(-14.858,50.012)"
                 id="g58" /></g></g><path
             id="path60"
             style="fill:none;stroke:#000000;stroke-width:0.3985;stroke-linecap:butt;stroke-linejoin:miter;stroke-miterlimit:10;stroke-dasharray:none;stroke-opacity:1"
             d="M 11.33855,39.68533 0,17.00824 11.33855,5.6697 5.6697,-11.33855 8.8340507,-11.946237 M 11.401582,-12.427649 39.68533,-17.00824 45.35504,0 H 28.34679 L -2.7082003,-20.730424 M -5.035026,-22.415366 -22.6771,-34.01648 -34.01648,-11.33855 -22.6771,0 11.33855,-39.68533"
             sodipodi:nodetypes="ccccccccccccccc" /><g
             id="g62"><g
               transform="translate(-3.205,-2.145)"
               id="g64"><g
                 id="g66"><g
                   transform="translate(-62.588,-63.648)"
                   id="g68"><text
   id="text72"
   style="font-variant:normal;font-weight:normal;font-size:9.96259975px;font-family:CMMI10;-inkscape-font-specification:CMMI10;writing-mode:lr-tb;fill:#000000;fill-opacity:1;fill-rule:nonzero;stroke:none"
   transform="matrix(1,0,0,-1,62.588,63.648)"><tspan
     id="tspan70"
     y="0"
     x="0">α</tspan></text>
<g
   transform="translate(62.588,63.648)"
   id="g74" /></g></g><g
                 transform="translate(3.205,2.145)"
                 id="g76" /></g></g></g></g></g></g></svg>
