<?xml version="1.0" encoding="UTF-8" standalone="no"?>
<svg
   xmlns:dc="http://purl.org/dc/elements/1.1/"
   xmlns:cc="http://creativecommons.org/ns#"
   xmlns:rdf="http://www.w3.org/1999/02/22-rdf-syntax-ns#"
   xmlns:svg="http://www.w3.org/2000/svg"
   xmlns="http://www.w3.org/2000/svg"
   viewBox="0 0 150.22133 150.576"
   height="150.576"
   style="background-color: white;"
   width="150.22133"
   xml:space="preserve"
   id="svg2"
   version="1.1"><metadata
     id="metadata8"><rdf:RDF><cc:Work
         rdf:about=""><dc:format>image/svg+xml</dc:format><dc:type
           rdf:resource="http://purl.org/dc/dcmitype/StillImage" /></cc:Work></rdf:RDF></metadata><defs
     id="defs6" /><g
     transform="matrix(1.3333333,0,0,-1.3333333,0,150.576)"
     id="g10"><g
       transform="translate(21.459,21.459)"
       id="g12"><g
         id="g14"><g
           id="g16"><path
             id="path18"
             style="fill:none;stroke:#000000;stroke-width:0.3985;stroke-linecap:butt;stroke-linejoin:miter;stroke-miterlimit:10;stroke-dasharray:none;stroke-opacity:1"
             d="M -21.26009,0 H 84.58214" /><g
             transform="translate(84.58214)"
             id="g20"><g
               id="g22"><path
                 id="path24"
                 style="fill:none;stroke:#000000;stroke-width:0.31878999;stroke-linecap:round;stroke-linejoin:round;stroke-miterlimit:10;stroke-dasharray:none;stroke-opacity:1"
                 d="M -1.19551,1.59401 C -1.09587,0.99626 0,0.09961 0.29886,0 0,-0.09961 -1.09587,-0.99626 -1.19551,-1.59401" /></g></g><g
             id="g26"><g
               transform="translate(82.192,-7.809)"
               id="g28"><g
                 id="g30"><g
                   transform="translate(-103.651,-13.65)"
                   id="g32"><text
                     id="text36"
                     style="font-variant:normal;font-weight:normal;font-size:9.96259975px;font-family:CMMI10;-inkscape-font-specification:CMMI10;writing-mode:lr-tb;fill:#000000;fill-opacity:1;fill-rule:nonzero;stroke:none"
                     transform="matrix(1,0,0,-1,103.651,13.65)"><tspan
                       id="tspan34"
                       y="0"
                       x="0">x</tspan></text>
<g
                     transform="translate(103.651,13.65)"
                     id="g38" /></g></g><g
                 transform="translate(-82.192,7.809)"
                 id="g40" /></g></g><path
             id="path42"
             style="fill:none;stroke:#000000;stroke-width:0.3985;stroke-linecap:butt;stroke-linejoin:miter;stroke-miterlimit:10;stroke-dasharray:none;stroke-opacity:1"
             d="M 0,-21.26009 V 84.58214" /><g
             transform="rotate(90,-42.29107,42.29107)"
             id="g44"><g
               id="g46"><path
                 id="path48"
                 style="fill:none;stroke:#000000;stroke-width:0.31878999;stroke-linecap:round;stroke-linejoin:round;stroke-miterlimit:10;stroke-dasharray:none;stroke-opacity:1"
                 d="M -1.19551,1.59401 C -1.09587,0.99626 0,0.09961 0.29886,0 0,-0.09961 -1.09587,-0.99626 -1.19551,-1.59401" /></g></g><g
             id="g50"><g
               transform="translate(-8.762,83.863)"
               id="g52"><g
                 id="g54"><g
                   transform="translate(-12.697,-105.322)"
                   id="g56"><text
                     id="text60"
                     style="font-variant:normal;font-weight:normal;font-size:9.96259975px;font-family:CMMI10;-inkscape-font-specification:CMMI10;writing-mode:lr-tb;fill:#000000;fill-opacity:1;fill-rule:nonzero;stroke:none"
                     transform="matrix(1,0,0,-1,12.697,105.322)"><tspan
                       id="tspan58"
                       y="0"
                       x="0">y</tspan></text>
<g
                     transform="translate(12.697,105.322)"
                     id="g62" /></g></g><g
                 transform="translate(8.762,-83.863)"
                 id="g64" /></g></g><g
             id="g66"><g
               transform="translate(-12.442,-11.908)"
               id="g68"><g
                 id="g70"><g
                   transform="translate(-9.017,-9.551)"
                   id="g72"><text
                     id="text76"
                     style="font-variant:normal;font-weight:normal;font-size:9.96259975px;font-family:CMMI10;-inkscape-font-specification:CMMI10;writing-mode:lr-tb;fill:#000000;fill-opacity:1;fill-rule:nonzero;stroke:none"
                     transform="matrix(1,0,0,-1,9.017,9.551)"><tspan
                       id="tspan74"
                       y="0"
                       x="0">O</tspan></text>
<g
                     transform="translate(9.017,9.551)"
                     id="g78" /></g></g><g
                 transform="translate(12.442,11.908)"
                 id="g80" /></g></g><path
             id="path82"
             style="fill:#000000;fill-opacity:1;fill-rule:nonzero;stroke:#000000;stroke-width:0.3985;stroke-linecap:butt;stroke-linejoin:miter;stroke-miterlimit:10;stroke-dasharray:none;stroke-opacity:1"
             d="m 27.75398,-12.75616 c 0,1.238 -1.0036,2.24162 -2.24162,2.24162 -1.23802,0 -2.24162,-1.00362 -2.24162,-2.24162 0,-1.23803 1.0036,-2.24163 2.24162,-2.24163 1.23802,0 2.24162,1.0036 2.24162,2.24163 z" /><path
             id="path84"
             style="fill:#000000;fill-opacity:1;fill-rule:nonzero;stroke:#000000;stroke-width:0.3985;stroke-linecap:butt;stroke-linejoin:miter;stroke-miterlimit:10;stroke-dasharray:none;stroke-opacity:1"
             d="m 87.28204,42.5202 c 0,1.23802 -1.0036,2.24163 -2.24162,2.24163 -1.23802,0 -2.24162,-1.00361 -2.24162,-2.24163 0,-1.23802 1.0036,-2.24162 2.24162,-2.24162 1.23802,0 2.24162,1.0036 2.24162,2.24162 z" /><g
             id="g86"><path
               id="path88"
               style="fill:none;stroke:#000000;stroke-width:0.79701;stroke-linecap:butt;stroke-linejoin:miter;stroke-miterlimit:10;stroke-dasharray:none;stroke-opacity:1"
               d="M 25.51236,-12.75616 85.04042,42.5202" /></g><g
             id="g90"><path
               id="path92"
               style="fill:none;stroke:#000000;stroke-width:0.79701;stroke-linecap:butt;stroke-linejoin:miter;stroke-miterlimit:10;stroke-dasharray:none;stroke-opacity:1"
               d="M 25.51236,-12.75616 63.2632,22.478" /><g
               transform="matrix(0.73105,0.6823,-0.6823,0.73105,63.2632,22.47798)"
               id="g94"><g
                 id="g96"><path
                   id="path98"
                   style="fill:none;stroke:#000000;stroke-width:0.6376;stroke-linecap:round;stroke-linejoin:round;stroke-miterlimit:10;stroke-dasharray:none;stroke-opacity:1"
                   d="M -1.55415,2.0722 C -1.42464,1.29512 0,0.1295 0.38852,0 0,-0.1295 -1.42464,-1.29512 -1.55415,-2.0722" /></g></g></g><path
             id="path100"
             style="fill:#000000;fill-opacity:1;fill-rule:nonzero;stroke:#000000;stroke-width:0.3985;stroke-linecap:butt;stroke-linejoin:miter;stroke-miterlimit:10;stroke-dasharray:none;stroke-opacity:1"
             d="m 44.76183,42.5202 c 0,1.23802 -1.00361,2.24163 -2.24163,2.24163 -1.23802,0 -2.24162,-1.00361 -2.24162,-2.24163 0,-1.23802 1.0036,-2.24162 2.24162,-2.24162 1.23802,0 2.24163,1.0036 2.24163,2.24162 z" /><g
             id="g102"><g
               transform="translate(31.22,39.116)"
               id="g104"><g
                 id="g106"><g
                   transform="translate(-52.679,-60.575)"
                   id="g108"><text
                     id="text112"
                     style="font-variant:normal;font-weight:normal;font-size:9.96259975px;font-family:CMMI10;-inkscape-font-specification:CMMI10;writing-mode:lr-tb;fill:#000000;fill-opacity:1;fill-rule:nonzero;stroke:none"
                     transform="matrix(1,0,0,-1,52.679,60.575)"><tspan
                       id="tspan110"
                       y="0"
                       x="0">P</tspan></text>
<g
                     transform="translate(52.679,60.575)"
                     id="g114" /></g></g><g
                 transform="translate(-31.22,-39.116)"
                 id="g116" /></g></g><g
             id="g118"><path
               id="path120"
               style="fill:none;stroke:#000000;stroke-width:0.79701;stroke-linecap:butt;stroke-linejoin:miter;stroke-miterlimit:10;stroke-dasharray:none;stroke-opacity:1"
               d="m 59.52802,34.01628 c 3.21258,8.82674 -1.33835,18.5867 -10.16509,21.79929 -4.7235,1.7193 -9.96785,1.26048 -13.70843,-0.89928" /><g
               transform="matrix(-0.86601,-0.5,0.5,-0.86601,35.65451,54.9163)"
               id="g122"><g
                 id="g124"><path
                   id="path126"
                   style="fill:none;stroke:#000000;stroke-width:0.6376;stroke-linecap:round;stroke-linejoin:round;stroke-miterlimit:10;stroke-dasharray:none;stroke-opacity:1"
                   d="M -1.55415,2.0722 C -1.42464,1.29512 0,0.1295 0.38852,0 0,-0.1295 -1.42464,-1.29512 -1.55415,-2.0722" /></g></g></g></g></g></g></g></svg>