<?xml version="1.0" encoding="UTF-8" standalone="no"?>
<svg
   xmlns:dc="http://purl.org/dc/elements/1.1/"
   xmlns:cc="http://creativecommons.org/ns#"
   xmlns:rdf="http://www.w3.org/1999/02/22-rdf-syntax-ns#"
   xmlns:svg="http://www.w3.org/2000/svg"
   xmlns="http://www.w3.org/2000/svg"
   viewBox="0 0 346.05734 307.03067"
   height="307.03067"
   width="346.05734"
   style="background-color: white;"
   xml:space="preserve"
   id="svg2"
   version="1.1"><metadata
     id="metadata8"><rdf:RDF><cc:Work
         rdf:about=""><dc:format>image/svg+xml</dc:format><dc:type
           rdf:resource="http://purl.org/dc/dcmitype/StillImage" /></cc:Work></rdf:RDF></metadata><defs
     id="defs6" /><g
     transform="matrix(1.3333333,0,0,-1.3333333,0,307.03067)"
     id="g10"><g
       transform="translate(108.512,122.685)"
       id="g12"><g
         id="g14"><g
           id="g16"><g
             id="g18" /><g
             id="g20" /><g
             id="g22" /><g
             id="g24" /><g
             id="g26" /><g
             id="g28" /><g
             id="g30" /><g
             id="g32" /><g
             id="g34"><path
               id="path36"
               style="fill:none;stroke:#000000;stroke-width:0.3985;stroke-linecap:round;stroke-linejoin:round;stroke-miterlimit:10;stroke-dasharray:2.98883, 2.98883;stroke-dashoffset:0;stroke-opacity:1"
               d="M 85.04042,0 C 85.04042,23.48355 46.96713,42.5202 0,42.5202 -46.96713,42.5202 -85.04042,23.48355 -85.04042,0 c 0,-23.48355 38.07329,-42.5202 85.04042,-42.5202 46.96713,0 85.04042,19.03665 85.04042,42.5202 z" /></g><path
             id="path38"
             style="fill:none;stroke:#000000;stroke-width:0.3985;stroke-linecap:round;stroke-linejoin:round;stroke-miterlimit:10;stroke-dasharray:none;stroke-opacity:1"
             d="M 85.04042,0 C 85.04042,46.96713 46.96713,85.04042 0,85.04042 -46.96713,85.04042 -85.04042,46.96713 -85.04042,0 c 0,-46.96713 38.07329,-85.04042 85.04042,-85.04042 46.96713,0 85.04042,38.07329 85.04042,85.04042 z" /><g
             id="g40"><path
               id="path42"
               style="fill:none;stroke:#000000;stroke-width:0.3985;stroke-linecap:round;stroke-linejoin:round;stroke-miterlimit:10;stroke-dasharray:0.3985, 1.99255;stroke-dashoffset:0;stroke-opacity:1"
               d="M 0,-79.37114 V 0 85.04042" /></g><g
             id="g44"><path
               id="path46"
               style="fill:none;stroke:#000000;stroke-width:0.3985;stroke-linecap:round;stroke-linejoin:round;stroke-miterlimit:10;stroke-dasharray:0.3985, 1.99255;stroke-dashoffset:0;stroke-opacity:1"
               d="M 0,85.04042 82.20555,19.84267" /></g><g
             id="g48"><path
               id="path50"
               style="fill:none;stroke:#000000;stroke-width:0.3985;stroke-linecap:round;stroke-linejoin:round;stroke-miterlimit:10;stroke-dasharray:0.3985, 1.99255;stroke-dashoffset:0;stroke-opacity:1"
               d="M 0,85.04042 25.51193,-70.867" /></g><g
             id="g52"><path
               id="path54"
               style="fill:none;stroke:#000000;stroke-width:0.3985;stroke-linecap:round;stroke-linejoin:round;stroke-miterlimit:10;stroke-dasharray:0.3985, 1.99255;stroke-dashoffset:0;stroke-opacity:1"
               d="M 0,85.04042 -11.33855,59.24472" /></g><path
             id="path56"
             style="fill:none;stroke:#000000;stroke-width:0.3985;stroke-linecap:round;stroke-linejoin:round;stroke-miterlimit:10;stroke-dasharray:none;stroke-opacity:1"
             d="m 82.20555,19.84267 31.18169,-31.18122" /><path
             id="path58"
             style="fill:none;stroke:#000000;stroke-width:0.3985;stroke-linecap:round;stroke-linejoin:round;stroke-miterlimit:10;stroke-dasharray:none;stroke-opacity:1"
             d="M 25.51193,-70.867 28.3468,-90.7097" /><path
             id="path60"
             style="fill:none;stroke:#000000;stroke-width:0.3985;stroke-linecap:round;stroke-linejoin:round;stroke-miterlimit:10;stroke-dasharray:none;stroke-opacity:1"
             d="M -11.33855,59.24472 -65.19774,-93.54454" /><g
             id="g62"><path
               id="path64"
               style="fill:none;stroke:#000000;stroke-width:0.79701;stroke-linecap:round;stroke-linejoin:round;stroke-miterlimit:10;stroke-dasharray:none;stroke-opacity:1"
               d="M -85.04042,28.3468 H 141.73404" /></g><g
             id="g66"><path
               id="path68"
               style="fill:none;stroke:#000000;stroke-width:0.79701;stroke-linecap:round;stroke-linejoin:round;stroke-miterlimit:10;stroke-dasharray:none;stroke-opacity:1"
               d="m -85.04042,28.3468 -14.1734,-141.73404" /></g><g
             id="g70"><path
               id="path72"
               style="fill:none;stroke:#000000;stroke-width:0.79701;stroke-linecap:round;stroke-linejoin:round;stroke-miterlimit:10;stroke-dasharray:none;stroke-opacity:1"
               d="M -99.21382,-113.38724 H 127.56062" /></g><g
             id="g74"><path
               id="path76"
               style="fill:none;stroke:#000000;stroke-width:0.79701;stroke-linecap:round;stroke-linejoin:round;stroke-miterlimit:10;stroke-dasharray:none;stroke-opacity:1"
               d="M 127.56062,-113.38724 141.73404,28.3468" /></g><path
             id="path78"
             style="fill:#000000;fill-opacity:1;fill-rule:nonzero;stroke:#000000;stroke-width:0.3985;stroke-linecap:round;stroke-linejoin:round;stroke-miterlimit:10;stroke-dasharray:none;stroke-opacity:1"
             d="m 1.49442,85.04042 c 0,0.82535 -0.66909,1.49442 -1.49442,1.49442 -0.82533,0 -1.49442,-0.66907 -1.49442,-1.49442 0,-0.82535 0.66909,-1.49442 1.49442,-1.49442 0.82533,0 1.49442,0.66907 1.49442,1.49442 z" /><g
             id="g80"><g
               transform="translate(-4.546,88.559)"
               id="g82"><g
                 id="g84"><g
                   transform="translate(-103.966,-211.244)"
                   id="g86"><text
                     id="text90"
                     style="font-variant:normal;font-weight:normal;font-size:9.96259975px;font-family:CMMI10;-inkscape-font-specification:CMMI10;writing-mode:lr-tb;fill:#000000;fill-opacity:1;fill-rule:nonzero;stroke:none"
                     transform="matrix(1,0,0,-1,103.966,211.244)"><tspan
                       id="tspan88"
                       y="0"
                       x="0">N</tspan></text>
<g
                     transform="translate(103.966,211.244)"
                     id="g92" /></g></g><g
                 transform="translate(4.546,-88.559)"
                 id="g94" /></g></g><path
             id="path96"
             style="fill:#000000;fill-opacity:1;fill-rule:nonzero;stroke:#000000;stroke-width:0.3985;stroke-linecap:round;stroke-linejoin:round;stroke-miterlimit:10;stroke-dasharray:none;stroke-opacity:1"
             d="m 1.49442,-79.37114 c 0,0.82535 -0.66909,1.49442 -1.49442,1.49442 -0.82533,0 -1.49442,-0.66907 -1.49442,-1.49442 0,-0.82533 0.66909,-1.49441 1.49442,-1.49441 0.82533,0 1.49442,0.66908 1.49442,1.49441 z" /><g
             id="g98"><g
               transform="translate(-3.342,-89.698)"
               id="g100"><g
                 id="g102"><g
                   transform="translate(-105.17,-32.987)"
                   id="g104"><text
                     id="text108"
                     style="font-variant:normal;font-weight:normal;font-size:9.96259975px;font-family:CMMI10;-inkscape-font-specification:CMMI10;writing-mode:lr-tb;fill:#000000;fill-opacity:1;fill-rule:nonzero;stroke:none"
                     transform="matrix(1,0,0,-1,105.17,32.987)"><tspan
                       id="tspan106"
                       y="0"
                       x="0">S</tspan></text>
<g
                     transform="translate(105.17,32.987)"
                     id="g110" /></g></g><g
                 transform="translate(3.342,89.698)"
                 id="g112" /></g></g><path
             id="path114"
             style="fill:#000000;fill-opacity:1;fill-rule:nonzero;stroke:#000000;stroke-width:0.3985;stroke-linecap:round;stroke-linejoin:round;stroke-miterlimit:10;stroke-dasharray:none;stroke-opacity:1"
             d="m 83.69997,19.84267 c 0,0.82534 -0.66907,1.49441 -1.49442,1.49441 -0.82533,0 -1.49441,-0.66907 -1.49441,-1.49441 0,-0.82535 0.66908,-1.49442 1.49441,-1.49442 0.82535,0 1.49442,0.66907 1.49442,1.49442 z" /><g
             id="g116"><g
               transform="translate(85.724,17.186)"
               id="g118"><g
                 id="g120"><g
                   transform="translate(-194.236,-139.871)"
                   id="g122"><text
                     id="text126"
                     style="font-variant:normal;font-weight:normal;font-size:9.96259975px;font-family:CMMI10;-inkscape-font-specification:CMMI10;writing-mode:lr-tb;fill:#000000;fill-opacity:1;fill-rule:nonzero;stroke:none"
                     transform="matrix(1,0,0,-1,194.236,139.871)"><tspan
                       id="tspan124"
                       y="0"
                       x="0">P</tspan></text>
<text
                     id="text130"
                     style="font-variant:normal;font-weight:normal;font-size:6.97380018px;font-family:CMR7;-inkscape-font-specification:CMR7;writing-mode:lr-tb;fill:#000000;fill-opacity:1;fill-rule:nonzero;stroke:none"
                     transform="matrix(1,0,0,-1,200.632,138.376)"><tspan
                       id="tspan128"
                       y="0"
                       x="0">1</tspan></text>
<g
                     transform="translate(194.236,139.871)"
                     id="g132" /></g></g><g
                 transform="translate(-85.724,-17.186)"
                 id="g134" /></g></g><path
             id="path136"
             style="fill:#000000;fill-opacity:1;fill-rule:nonzero;stroke:#000000;stroke-width:0.3985;stroke-linecap:round;stroke-linejoin:round;stroke-miterlimit:10;stroke-dasharray:none;stroke-opacity:1"
             d="m 27.00635,-70.867 c 0,0.82534 -0.66907,1.49441 -1.49442,1.49441 -0.82535,0 -1.49441,-0.66907 -1.49441,-1.49441 0,-0.82535 0.66906,-1.49442 1.49441,-1.49442 0.82535,0 1.49442,0.66907 1.49442,1.49442 z" /><g
             id="g138"><g
               transform="translate(11.126,-73.523)"
               id="g140"><g
                 id="g142"><g
                   transform="translate(-119.638,-49.162)"
                   id="g144"><text
                     id="text148"
                     style="font-variant:normal;font-weight:normal;font-size:9.96259975px;font-family:CMMI10;-inkscape-font-specification:CMMI10;writing-mode:lr-tb;fill:#000000;fill-opacity:1;fill-rule:nonzero;stroke:none"
                     transform="matrix(1,0,0,-1,119.638,49.162)"><tspan
                       id="tspan146"
                       y="0"
                       x="0">P</tspan></text>
<text
                     id="text152"
                     style="font-variant:normal;font-weight:normal;font-size:6.97380018px;font-family:CMR7;-inkscape-font-specification:CMR7;writing-mode:lr-tb;fill:#000000;fill-opacity:1;fill-rule:nonzero;stroke:none"
                     transform="matrix(1,0,0,-1,126.034,47.668)"><tspan
                       id="tspan150"
                       y="0"
                       x="0">2</tspan></text>
<g
                     transform="translate(119.638,49.162)"
                     id="g154" /></g></g><g
                 transform="translate(-11.126,73.523)"
                 id="g156" /></g></g><path
             id="path158"
             style="fill:#000000;fill-opacity:1;fill-rule:nonzero;stroke:#000000;stroke-width:0.3985;stroke-linecap:round;stroke-linejoin:round;stroke-miterlimit:10;stroke-dasharray:none;stroke-opacity:1"
             d="m -9.84413,59.24472 c 0,0.82535 -0.66907,1.49442 -1.49442,1.49442 -0.82533,0 -1.49441,-0.66907 -1.49441,-1.49442 0,-0.82535 0.66908,-1.49442 1.49441,-1.49442 0.82535,0 1.49442,0.66907 1.49442,1.49442 z" /><g
             id="g160"><g
               transform="translate(-7.819,56.587)"
               id="g162"><g
                 id="g164"><g
                   transform="translate(-100.693,-179.272)"
                   id="g166"><text
                     id="text170"
                     style="font-variant:normal;font-weight:normal;font-size:9.96259975px;font-family:CMMI10;-inkscape-font-specification:CMMI10;writing-mode:lr-tb;fill:#000000;fill-opacity:1;fill-rule:nonzero;stroke:none"
                     transform="matrix(1,0,0,-1,100.693,179.272)"><tspan
                       id="tspan168"
                       y="0"
                       x="0">P</tspan></text>
<text
                     id="text174"
                     style="font-variant:normal;font-weight:normal;font-size:6.97380018px;font-family:CMR7;-inkscape-font-specification:CMR7;writing-mode:lr-tb;fill:#000000;fill-opacity:1;fill-rule:nonzero;stroke:none"
                     transform="matrix(1,0,0,-1,107.089,177.778)"><tspan
                       id="tspan172"
                       y="0"
                       x="0">3</tspan></text>
<g
                     transform="translate(100.693,179.272)"
                     id="g176" /></g></g><g
                 transform="translate(7.819,-56.587)"
                 id="g178" /></g></g><path
             id="path180"
             style="fill:#000000;fill-opacity:1;fill-rule:nonzero;stroke:#000000;stroke-width:0.3985;stroke-linecap:round;stroke-linejoin:round;stroke-miterlimit:10;stroke-dasharray:none;stroke-opacity:1"
             d="m 114.88165,-11.33855 c 0,0.82535 -0.66908,1.49442 -1.49441,1.49442 -0.82535,0 -1.49442,-0.66907 -1.49442,-1.49442 0,-0.82533 0.66907,-1.49441 1.49442,-1.49441 0.82533,0 1.49441,0.66908 1.49441,1.49441 z" /><g
             id="g182"><g
               transform="translate(116.905,-13.774)"
               id="g184"><g
                 id="g186"><g
                   transform="translate(-225.417,-108.911)"
                   id="g188"><text
                     id="text192"
                     style="font-variant:normal;font-weight:normal;font-size:9.96259975px;font-family:CMMI10;-inkscape-font-specification:CMMI10;writing-mode:lr-tb;fill:#000000;fill-opacity:1;fill-rule:nonzero;stroke:none"
                     transform="matrix(1,0,0,-1,225.417,108.911)"><tspan
                       id="tspan190"
                       y="0"
                       x="0">Q</tspan></text>
<text
                     id="text196"
                     style="font-variant:normal;font-weight:normal;font-size:6.97380018px;font-family:CMR7;-inkscape-font-specification:CMR7;writing-mode:lr-tb;fill:#000000;fill-opacity:1;fill-rule:nonzero;stroke:none"
                     transform="matrix(1,0,0,-1,233.293,107.417)"><tspan
                       id="tspan194"
                       y="0"
                       x="0">1</tspan></text>
<g
                     transform="translate(225.417,108.911)"
                     id="g198" /></g></g><g
                 transform="translate(-116.905,13.774)"
                 id="g200" /></g></g><path
             id="path202"
             style="fill:#000000;fill-opacity:1;fill-rule:nonzero;stroke:#000000;stroke-width:0.3985;stroke-linecap:round;stroke-linejoin:round;stroke-miterlimit:10;stroke-dasharray:none;stroke-opacity:1"
             d="m 29.84122,-90.7097 c 0,0.82535 -0.66907,1.49441 -1.49442,1.49441 -0.82535,0 -1.49441,-0.66906 -1.49441,-1.49441 0,-0.82533 0.66906,-1.49442 1.49441,-1.49442 0.82535,0 1.49442,0.66909 1.49442,1.49442 z" /><g
             id="g204"><g
               transform="translate(12.481,-93.144)"
               id="g206"><g
                 id="g208"><g
                   transform="translate(-120.993,-29.541)"
                   id="g210"><text
                     id="text214"
                     style="font-variant:normal;font-weight:normal;font-size:9.96259975px;font-family:CMMI10;-inkscape-font-specification:CMMI10;writing-mode:lr-tb;fill:#000000;fill-opacity:1;fill-rule:nonzero;stroke:none"
                     transform="matrix(1,0,0,-1,120.993,29.541)"><tspan
                       id="tspan212"
                       y="0"
                       x="0">Q</tspan></text>
<text
                     id="text218"
                     style="font-variant:normal;font-weight:normal;font-size:6.97380018px;font-family:CMR7;-inkscape-font-specification:CMR7;writing-mode:lr-tb;fill:#000000;fill-opacity:1;fill-rule:nonzero;stroke:none"
                     transform="matrix(1,0,0,-1,128.869,28.047)"><tspan
                       id="tspan216"
                       y="0"
                       x="0">2</tspan></text>
<g
                     transform="translate(120.993,29.541)"
                     id="g220" /></g></g><g
                 transform="translate(-12.481,93.144)"
                 id="g222" /></g></g><path
             id="path224"
             style="fill:#000000;fill-opacity:1;fill-rule:nonzero;stroke:#000000;stroke-width:0.3985;stroke-linecap:round;stroke-linejoin:round;stroke-miterlimit:10;stroke-dasharray:none;stroke-opacity:1"
             d="m -63.70332,-93.54454 c 0,0.82534 -0.66907,1.49441 -1.49442,1.49441 -0.82535,0 -1.49441,-0.66907 -1.49441,-1.49441 0,-0.82535 0.66906,-1.49442 1.49441,-1.49442 0.82535,0 1.49442,0.66907 1.49442,1.49442 z" /><g
             id="g226"><g
               transform="translate(-71.37,-88.086)"
               id="g228"><g
                 id="g230"><g
                   transform="translate(-37.142,-34.599)"
                   id="g232"><text
                     id="text236"
                     style="font-variant:normal;font-weight:normal;font-size:9.96259975px;font-family:CMMI10;-inkscape-font-specification:CMMI10;writing-mode:lr-tb;fill:#000000;fill-opacity:1;fill-rule:nonzero;stroke:none"
                     transform="matrix(1,0,0,-1,37.142,34.599)"><tspan
                       id="tspan234"
                       y="0"
                       x="0">Q</tspan></text>
<text
                     id="text240"
                     style="font-variant:normal;font-weight:normal;font-size:6.97380018px;font-family:CMR7;-inkscape-font-specification:CMR7;writing-mode:lr-tb;fill:#000000;fill-opacity:1;fill-rule:nonzero;stroke:none"
                     transform="matrix(1,0,0,-1,45.018,33.104)"><tspan
                       id="tspan238"
                       y="0"
                       x="0">3</tspan></text>
<g
                     transform="translate(37.142,34.599)"
                     id="g242" /></g></g><g
                 transform="translate(71.37,88.086)"
                 id="g244" /></g></g></g></g></g></g></svg>