<?xml version="1.0" encoding="UTF-8" standalone="no"?>
<svg
   viewBox="0 0 443.95951 410.19949"
   height="410.19949"
   width="443.9595"
   xml:space="preserve"
   id="svg2"
   version="1.1"
   sodipodi:docname="sphere.svg"
   inkscape:version="1.4 (1:1.4+202410161351+e7c3feb100)"
   xmlns:inkscape="http://www.inkscape.org/namespaces/inkscape"
   xmlns:sodipodi="http://sodipodi.sourceforge.net/DTD/sodipodi-0.dtd"
   xmlns="http://www.w3.org/2000/svg"
   xmlns:svg="http://www.w3.org/2000/svg"
   xmlns:rdf="http://www.w3.org/1999/02/22-rdf-syntax-ns#"
   xmlns:cc="http://creativecommons.org/ns#"
   xmlns:dc="http://purl.org/dc/elements/1.1/"><sodipodi:namedview
     id="namedview1"
     pagecolor="#ffffff"
     bordercolor="#000000"
     borderopacity="0.25"
     inkscape:showpageshadow="2"
     inkscape:pageopacity="0.0"
     inkscape:pagecheckerboard="0"
     inkscape:deskcolor="#d1d1d1"
     inkscape:zoom="3.8599107"
     inkscape:cx="225.52335"
     inkscape:cy="158.29382"
     inkscape:window-width="1920"
     inkscape:window-height="1043"
     inkscape:window-x="1920"
     inkscape:window-y="0"
     inkscape:window-maximized="1"
     inkscape:current-layer="g16"><inkscape:page
       x="0"
       y="0"
       width="443.9595"
       height="410.19949"
       id="page1"
       margin="0"
       bleed="0" /></sodipodi:namedview><metadata
     id="metadata8"><rdf:RDF><cc:Work
         rdf:about=""><dc:format>image/svg+xml</dc:format><dc:type
           rdf:resource="http://purl.org/dc/dcmitype/StillImage" /></cc:Work></rdf:RDF></metadata><defs
     id="defs6"><marker
       style="overflow:visible"
       id="Dot"
       refX="0"
       refY="0"
       orient="auto"
       inkscape:stockid="Dot"
       markerWidth="2.0999999"
       markerHeight="2.0999999"
       viewBox="0 0 1 1"
       inkscape:isstock="true"
       inkscape:collect="always"
       preserveAspectRatio="xMidYMid"><path
         transform="scale(0.5)"
         style="fill:context-stroke;fill-rule:evenodd;stroke:none"
         d="M 5,0 C 5,2.76 2.76,5 0,5 -2.76,5 -5,2.76 -5,0 c 0,-2.76 2.3,-5 5,-5 2.76,0 5,2.24 5,5 z"
         sodipodi:nodetypes="sssss"
         id="path17" /></marker></defs><g
     transform="matrix(1.3333333,0,0,-1.3333333,81.591545,277.11282)"
     id="g10"><g
       transform="translate(108.12339,123.46222)"
       id="g12"><g
         id="g14"
         transform="translate(-2.4730991)"><g
           id="g16"
           transform="translate(0,-20.883948)"><g
             id="g18"
             transform="translate(3.7412574e-6)" /><g
             id="g20" /><g
             id="g22" /><g
             id="g24" /><g
             id="g26" /><g
             id="g28" /><g
             id="g30" /><g
             id="g32" /><g
             id="g34"
             transform="translate(2.7364483,-14.222342)"><path
               id="path36"
               style="fill:none;stroke:#000000;stroke-width:0.3985;stroke-linecap:round;stroke-linejoin:round;stroke-miterlimit:10;stroke-dasharray:2.98883, 2.98883;stroke-dashoffset:0;stroke-opacity:1"
               d="M 85.04042,0 C 85.04042,23.48355 46.96713,42.5202 0,42.5202 -46.96713,42.5202 -85.04042,23.48355 -85.04042,0 c 0,-23.48355 38.07329,-42.5202 85.04042,-42.5202 46.96713,0 85.04042,19.03665 85.04042,42.5202 z" /></g><g
             id="g44"
             transform="translate(9.342819,-15.388172)" /><path
             id="path56"
             style="fill:none;stroke:#000000;stroke-width:0.3985;stroke-linecap:round;stroke-linejoin:round;stroke-miterlimit:10;stroke-dasharray:none;stroke-opacity:1"
             d="M 84.941998,5.6203277 116.12369,-25.560892" /><path
             id="path58"
             style="fill:none;stroke:#000000;stroke-width:0.5745;stroke-linecap:round;stroke-linejoin:round;stroke-miterlimit:10;stroke-dasharray:none;stroke-opacity:1"
             d="m 24.406126,-61.622279 6.536122,-42.683001"
             sodipodi:nodetypes="cc" /><path
             id="path60"
             style="fill:none;stroke:#000000;stroke-width:0.3985;stroke-linecap:round;stroke-linejoin:round;stroke-miterlimit:10;stroke-dasharray:none;stroke-opacity:1"
             d="M -8.6021017,45.022378 -62.461292,-107.76688" /><g
             id="g62"
             transform="matrix(1.1268507,0,0,-1,-14.743595,77.644227)"><path
               id="path64"
               style="fill:none;stroke:#000000;stroke-width:0.79701;stroke-linecap:round;stroke-linejoin:round;stroke-miterlimit:10;stroke-dasharray:none;stroke-opacity:1"
               d="M -85.04042,28.3468 H 141.73404" /></g><g
             id="g66"
             transform="matrix(2.6798609,0,0,1.2831074,116.94938,13.2841)"><path
               id="path68"
               style="fill:none;stroke:#000000;stroke-width:0.79701;stroke-linecap:round;stroke-linejoin:round;stroke-miterlimit:10;stroke-dasharray:none;stroke-opacity:1"
               d="m -85.04042,28.3468 -14.1734,-141.73404" /></g><g
             id="g70"
             transform="matrix(1.1763723,0,0,1,-31.922707,-19.168541)"><path
               id="path72"
               style="fill:none;stroke:#000000;stroke-width:0.79701;stroke-linecap:round;stroke-linejoin:round;stroke-miterlimit:10;stroke-dasharray:none;stroke-opacity:1"
               d="M -99.21382,-113.38724 H 127.56062" /></g><g
             id="g74"
             transform="matrix(1.8255706,0,0,1.2781248,-114.46978,12.579576)"
             style="opacity:1;mix-blend-mode:normal;stroke-width:0.856783;stroke-dasharray:none"><path
               id="path76"
               style="fill:none;stroke:#000000;stroke-width:0.856783;stroke-linecap:round;stroke-linejoin:round;stroke-miterlimit:10;stroke-dasharray:none;stroke-opacity:1"
               d="M 127.56062,-113.38724 141.73404,28.3468" /></g><path
             id="path78"
             style="fill:#000000;fill-opacity:1;fill-rule:nonzero;stroke:#000000;stroke-width:0.3985;stroke-linecap:round;stroke-linejoin:round;stroke-miterlimit:10;stroke-dasharray:none;stroke-opacity:1"
             d="m 4.2308683,70.818078 c 0,0.82535 -0.66909,1.49442 -1.49442,1.49442 -0.82533,0 -1.49442,-0.66907 -1.49442,-1.49442 0,-0.82535 0.66909,-1.49442 1.49442,-1.49442 0.82533,0 1.49442,0.66907 1.49442,1.49442 z" /><g
             id="g80"
             transform="translate(2.7364483,-14.222342)"><g
               transform="translate(-4.546,88.559)"
               id="g82"><g
                 id="g84"><g
                   transform="translate(-103.966,-211.244)"
                   id="g86"><text
   id="text90"
   style="font-variant:normal;font-weight:normal;font-size:9.9626px;font-family:CMMI10;-inkscape-font-specification:CMMI10;writing-mode:lr-tb;fill:#000000;fill-opacity:1;fill-rule:nonzero;stroke:none"
   transform="matrix(1,0,0,-1,103.966,211.244)"><tspan
     id="tspan88"
     y="0"
     x="0">N</tspan></text>
<g
   transform="translate(103.966,211.244)"
   id="g92" /></g></g><g
                 transform="translate(4.546,-88.559)"
                 id="g94" /></g></g><path
             id="path96"
             style="fill:#000000;fill-opacity:1;fill-rule:nonzero;stroke:#000000;stroke-width:0.3985;stroke-linecap:round;stroke-linejoin:round;stroke-miterlimit:10;stroke-dasharray:none;stroke-opacity:1"
             d="m 4.2308683,-93.593482 c 0,0.82535 -0.66909,1.49442 -1.49442,1.49442 -0.82533,0 -1.49442,-0.66907 -1.49442,-1.49442 0,-0.82533 0.66909,-1.49441 1.49442,-1.49441 0.82533,0 1.49442,0.66908 1.49442,1.49441 z" /><g
             id="g98"
             transform="translate(2.7364483,-18.497052)"><g
               transform="translate(-3.342,-89.698)"
               id="g100"><g
                 id="g102"><g
                   transform="translate(-105.17,-32.987)"
                   id="g104"><text
   id="text108"
   style="font-variant:normal;font-weight:normal;font-size:9.9626px;font-family:CMMI10;-inkscape-font-specification:CMMI10;writing-mode:lr-tb;fill:#000000;fill-opacity:1;fill-rule:nonzero;stroke:none"
   transform="scale(1,-1)"
   x="104.97569"
   y="-34.347134"><tspan
     id="tspan106"
     y="-34.347134"
     x="104.97569">S</tspan></text>
<g
   transform="translate(105.17,32.987)"
   id="g110" /></g></g><g
                 transform="translate(3.342,89.698)"
                 id="g112" /></g></g><path
             id="path114"
             style="fill:#000000;fill-opacity:1;fill-rule:nonzero;stroke:#000000;stroke-width:0.3985;stroke-linecap:round;stroke-linejoin:round;stroke-miterlimit:10;stroke-dasharray:none;stroke-opacity:1"
             d="m 86.436418,5.6203277 c 0,0.82534 -0.66907,1.49441 -1.49442,1.49441 -0.82533,0 -1.49441,-0.66907 -1.49441,-1.49441 0,-0.82535 0.66908,-1.49442 1.49441,-1.49442 0.82535,0 1.49442,0.66907 1.49442,1.49442 z" /><g
             id="g116"
             transform="translate(2.7364483,-14.222342)"><g
               transform="translate(85.724,17.186)"
               id="g118"><g
                 id="g120"><g
                   transform="translate(-194.236,-139.871)"
                   id="g122"><text
   id="text126"
   style="font-variant:normal;font-weight:normal;font-size:9.9626px;font-family:CMMI10;-inkscape-font-specification:CMMI10;writing-mode:lr-tb;fill:#000000;fill-opacity:1;fill-rule:nonzero;stroke:none"
   transform="matrix(1,0,0,-1,194.236,139.871)"><tspan
     id="tspan124"
     y="0"
     x="0">P</tspan></text>
<text
   id="text130"
   style="font-variant:normal;font-weight:normal;font-size:6.9738px;font-family:CMR7;-inkscape-font-specification:CMR7;writing-mode:lr-tb;fill:#000000;fill-opacity:1;fill-rule:nonzero;stroke:none"
   transform="matrix(1,0,0,-1,200.632,138.376)"><tspan
     id="tspan128"
     y="0"
     x="0">1</tspan></text>
<g
   transform="translate(194.236,139.871)"
   id="g132" /></g></g><g
                 transform="translate(-85.724,-17.186)"
                 id="g134" /></g></g><path
             id="path136"
             style="fill:#000000;fill-opacity:1;fill-rule:nonzero;stroke:#000000;stroke-width:0.3985;stroke-linecap:round;stroke-linejoin:round;stroke-miterlimit:10;stroke-dasharray:none;stroke-opacity:1"
             d="m 26.051003,-61.481283 c 0,0.82534 -0.66907,1.49441 -1.49442,1.49441 -0.82535,0 -1.49441,-0.66907 -1.49441,-1.49441 0,-0.82535 0.66906,-1.49442 1.49441,-1.49442 0.82535,0 1.49442,0.66907 1.49442,1.49442 z" /><g
             id="g138"
             transform="translate(2.7364483,-14.222342)"><g
               transform="translate(11.126,-73.523)"
               id="g140"><g
                 id="g142"><g
                   transform="translate(-119.638,-49.162)"
                   id="g144"><text
   id="text148"
   style="font-variant:normal;font-weight:normal;font-size:9.9626px;font-family:CMMI10;-inkscape-font-specification:CMMI10;writing-mode:lr-tb;fill:#000000;fill-opacity:1;fill-rule:nonzero;stroke:none"
   transform="matrix(1,0,0,-1,119.638,49.162)"><tspan
     id="tspan146"
     y="0"
     x="0">P</tspan></text>
<text
   id="text152"
   style="font-variant:normal;font-weight:normal;font-size:6.9738px;font-family:CMR7;-inkscape-font-specification:CMR7;writing-mode:lr-tb;fill:#000000;fill-opacity:1;fill-rule:nonzero;stroke:none"
   transform="matrix(1,0,0,-1,126.034,47.668)"><tspan
     id="tspan150"
     y="0"
     x="0">2</tspan></text>
<g
   transform="translate(119.638,49.162)"
   id="g154" /></g></g><g
                 transform="translate(-11.126,73.523)"
                 id="g156" /></g></g><path
             id="path158"
             style="fill:#000000;fill-opacity:1;fill-rule:nonzero;stroke:#000000;stroke-width:0.3985;stroke-linecap:round;stroke-linejoin:round;stroke-miterlimit:10;stroke-dasharray:none;stroke-opacity:1"
             d="m -7.1076817,45.022378 c 0,0.82535 -0.66907,1.49442 -1.49442,1.49442 -0.82533,0 -1.4944103,-0.66907 -1.4944103,-1.49442 0,-0.82535 0.6690803,-1.49442 1.4944103,-1.49442 0.82535,0 1.49442,0.66907 1.49442,1.49442 z" /><g
             id="g160"
             transform="translate(-29.139052,-48.983124)"><g
               transform="translate(-7.819,56.587)"
               id="g162"><g
                 id="g164"><g
                   transform="translate(-100.693,-179.272)"
                   id="g166"><text
   id="text170"
   style="font-variant:normal;font-weight:normal;font-size:9.9626px;font-family:CMMI10;-inkscape-font-specification:CMMI10;writing-mode:lr-tb;fill:#000000;fill-opacity:1;fill-rule:nonzero;stroke:none"
   transform="matrix(1,0,0,-1,100.693,179.272)"><tspan
     id="tspan168"
     y="0"
     x="0">P</tspan></text>
<text
   id="text174"
   style="font-variant:normal;font-weight:normal;font-size:6.9738px;font-family:CMR7;-inkscape-font-specification:CMR7;writing-mode:lr-tb;fill:#000000;fill-opacity:1;fill-rule:nonzero;stroke:none"
   transform="matrix(1,0,0,-1,107.089,177.778)"><tspan
     id="tspan172"
     y="0"
     x="0">3</tspan></text>
<g
   transform="translate(100.693,179.272)"
   id="g176" /></g></g><g
                 transform="translate(7.819,-56.587)"
                 id="g178" /></g></g><path
             id="path180"
             style="fill:#000000;fill-opacity:1;fill-rule:nonzero;stroke:#000000;stroke-width:0.3985;stroke-linecap:round;stroke-linejoin:round;stroke-miterlimit:10;stroke-dasharray:none;stroke-opacity:1"
             d="m 117.6181,-25.560892 c 0,0.82535 -0.66908,1.49442 -1.49441,1.49442 -0.82535,0 -1.49442,-0.66907 -1.49442,-1.49442 0,-0.82533 0.66907,-1.49441 1.49442,-1.49441 0.82533,0 1.49441,0.66908 1.49441,1.49441 z" /><g
             id="g182"
             transform="translate(-6.6063706,-23.015583)"><g
               transform="translate(116.905,-13.774)"
               id="g184"><g
                 id="g186"><g
                   transform="translate(-225.417,-108.911)"
                   id="g188"><text
   id="text192"
   style="font-variant:normal;font-weight:normal;font-size:9.9626px;font-family:CMMI10;-inkscape-font-specification:CMMI10;writing-mode:lr-tb;fill:#000000;fill-opacity:1;fill-rule:nonzero;stroke:none"
   transform="matrix(1,0,0,-1,225.417,108.911)"><tspan
     id="tspan190"
     y="0"
     x="0">Q</tspan></text>
<text
   id="text196"
   style="font-variant:normal;font-weight:normal;font-size:6.9738px;font-family:CMR7;-inkscape-font-specification:CMR7;writing-mode:lr-tb;fill:#000000;fill-opacity:1;fill-rule:nonzero;stroke:none"
   transform="matrix(1,0,0,-1,233.293,107.417)"><tspan
     id="tspan194"
     y="0"
     x="0">1</tspan></text>
<g
   transform="translate(225.417,108.911)"
   id="g198" /></g></g><g
                 transform="translate(-116.905,13.774)"
                 id="g200" /></g></g><path
             id="path202"
             style="fill:#000000;fill-opacity:1;fill-rule:nonzero;stroke:#000000;stroke-width:0.3985;stroke-linecap:round;stroke-linejoin:round;stroke-miterlimit:10;stroke-dasharray:none;stroke-opacity:1"
             d="m 32.577668,-104.93204 c 0,0.82535 -0.66907,1.49441 -1.49442,1.49441 -0.82535,0 -1.49441,-0.66906 -1.49441,-1.49441 0,-0.82533 0.66906,-1.49442 1.49441,-1.49442 0.82535,0 1.49442,0.66909 1.49442,1.49442 z" /><g
             id="g204"
             transform="translate(2.7364483,-14.222342)"><g
               transform="translate(12.481,-93.144)"
               id="g206"><g
                 id="g208"><g
                   transform="translate(-120.993,-29.541)"
                   id="g210"><text
   id="text214"
   style="font-variant:normal;font-weight:normal;font-size:9.9626px;font-family:CMMI10;-inkscape-font-specification:CMMI10;writing-mode:lr-tb;fill:#000000;fill-opacity:1;fill-rule:nonzero;stroke:none"
   transform="matrix(1,0,0,-1,120.993,29.541)"><tspan
     id="tspan212"
     y="0"
     x="0">Q</tspan></text>
<text
   id="text218"
   style="font-variant:normal;font-weight:normal;font-size:6.9738px;font-family:CMR7;-inkscape-font-specification:CMR7;writing-mode:lr-tb;fill:#000000;fill-opacity:1;fill-rule:nonzero;stroke:none"
   transform="matrix(1,0,0,-1,128.869,28.047)"><tspan
     id="tspan216"
     y="0"
     x="0">2</tspan></text>
<g
   transform="translate(120.993,29.541)"
   id="g220" /></g></g><g
                 transform="translate(-12.481,93.144)"
                 id="g222" /></g></g><path
             id="path224"
             style="fill:#000000;fill-opacity:1;fill-rule:nonzero;stroke:#000000;stroke-width:0.3985;stroke-linecap:round;stroke-linejoin:round;stroke-miterlimit:10;stroke-dasharray:none;stroke-opacity:1"
             d="m -60.966872,-107.76688 c 0,0.82534 -0.66907,1.49441 -1.49442,1.49441 -0.82535,0 -1.49441,-0.66907 -1.49441,-1.49441 0,-0.82535 0.66906,-1.49442 1.49441,-1.49442 0.82535,0 1.49442,0.66907 1.49442,1.49442 z" /><g
             id="g226"
             transform="translate(2.7364483,-14.222342)"><g
               transform="translate(-71.37,-88.086)"
               id="g228"><g
                 id="g230"><g
                   transform="translate(-37.142,-34.599)"
                   id="g232"><text
   id="text236"
   style="font-variant:normal;font-weight:normal;font-size:9.9626px;font-family:CMMI10;-inkscape-font-specification:CMMI10;writing-mode:lr-tb;fill:#000000;fill-opacity:1;fill-rule:nonzero;stroke:none"
   transform="matrix(1,0,0,-1,37.142,34.599)"><tspan
     id="tspan234"
     y="0"
     x="0">Q</tspan></text>
<text
   id="text240"
   style="font-variant:normal;font-weight:normal;font-size:6.9738px;font-family:CMR7;-inkscape-font-specification:CMR7;writing-mode:lr-tb;fill:#000000;fill-opacity:1;fill-rule:nonzero;stroke:none"
   transform="matrix(1,0,0,-1,45.018,33.104)"><tspan
     id="tspan238"
     y="0"
     x="0">3</tspan></text>
<g
   transform="translate(37.142,34.599)"
   id="g242" /></g></g><g
                 transform="translate(71.37,88.086)"
                 id="g244" /></g></g></g></g></g><rect
       style="opacity:1;fill:#ffffff;stroke-width:1.30875;stroke-dasharray:none"
       id="rect1"
       width="128.62993"
       height="11.269698"
       x="43.815586"
       y="-155.59656"
       transform="scale(1,-1)" /><g
       id="g40"
       transform="matrix(1,0,0,0.99833068,108.77535,87.72067)"><path
         id="path42"
         style="fill:none;stroke:#000000;stroke-width:0.3985;stroke-linecap:round;stroke-linejoin:round;stroke-miterlimit:10;stroke-dasharray:0.3985, 1.99255;stroke-dashoffset:0;stroke-opacity:1"
         d="M 0,-79.37114 V 0 85.04042" /></g><g
       id="g52"
       transform="translate(108.77535,87.57871)"><g
         id="g48"
         transform="translate(-2.6154571e-6)"><path
           id="path50"
           style="fill:none;stroke:#000000;stroke-width:0.3985;stroke-linecap:round;stroke-linejoin:round;stroke-miterlimit:10;stroke-dasharray:0.3985, 1.99255;stroke-dashoffset:0;stroke-opacity:1"
           d="m 0,85.04042 21.595522,-133.161064 0.03031,0.08448"
           sodipodi:nodetypes="ccc" /></g><path
         id="path54"
         style="fill:none;stroke:#000000;stroke-width:0.3985;stroke-linecap:round;stroke-linejoin:round;stroke-miterlimit:10;stroke-dasharray:0.3985, 1.99255;stroke-dashoffset:0;stroke-opacity:1;marker-end:url(#Dot)"
         d="M 0,85.04042 -11.33855,59.24472" /><path
         id="path46"
         style="fill:none;stroke:#000000;stroke-width:0.3985;stroke-linecap:round;stroke-linejoin:round;stroke-miterlimit:10;stroke-dasharray:0.3985, 1.99255;stroke-dashoffset:0;stroke-opacity:1"
         d="M 0,85.04042 82.20555,19.84267"
         transform="translate(-2.6154571e-6)" /></g><path
       id="path38"
       style="fill:none;stroke:#000000;stroke-width:0.3985;stroke-linecap:round;stroke-linejoin:round;stroke-miterlimit:10;stroke-dasharray:none;stroke-opacity:1"
       d="m 193.23285,89.327453 c 0,46.967127 -38.07329,85.040417 -85.04042,85.040417 -46.967127,0 -85.040417,-38.07329 -85.040417,-85.040417 0,-46.96713 38.07329,-85.0404178 85.040417,-85.0404178 46.96713,0 85.04042,38.0732878 85.04042,85.0404178 z"
       sodipodi:nodetypes="sssss" /></g></svg>
