<?xml version="1.0" encoding="UTF-8" standalone="no"?>
<svg
   width="381.23706pt"
   height="115.56793pt"
   viewBox="0 0 381.23705 115.56794"
   version="1.1"
   id="svg4"
   sodipodi:docname="trefoil.svg"
   inkscape:version="1.4 (1:1.4+202410161351+e7c3feb100)"
   xmlns:inkscape="http://www.inkscape.org/namespaces/inkscape"
   xmlns:sodipodi="http://sodipodi.sourceforge.net/DTD/sodipodi-0.dtd"
   xmlns="http://www.w3.org/2000/svg"
   xmlns:svg="http://www.w3.org/2000/svg">
  <sodipodi:namedview
     id="namedview4"
     pagecolor="#ffffff"
     bordercolor="#000000"
     borderopacity="0.25"
     inkscape:showpageshadow="2"
     inkscape:pageopacity="0.0"
     inkscape:pagecheckerboard="0"
     inkscape:deskcolor="#d1d1d1"
     inkscape:document-units="pt"
     inkscape:zoom="1.6621625"
     inkscape:cx="320.06497"
     inkscape:cy="245.46336"
     inkscape:window-width="1920"
     inkscape:window-height="1043"
     inkscape:window-x="0"
     inkscape:window-y="0"
     inkscape:window-maximized="1"
     inkscape:current-layer="svg4">
    <inkscape:page
       x="0"
       y="0"
       width="381.23706"
       height="115.56794"
       id="page17"
       margin="0"
       bleed="0" />
  </sodipodi:namedview>
  <defs
     id="defs2">
    <inkscape:path-effect
       effect="bspline"
       id="path-effect5"
       is_visible="true"
       lpeversion="1.3"
       weight="33.333333"
       steps="2"
       helper_size="0"
       apply_no_weight="true"
       apply_with_weight="true"
       only_selected="false"
       uniform="false" />
    <clipPath
       id="clip1">
      <path
         d="M 0,0 H 94 V 86.503906 H 0 Z m 0,0"
         id="path1" />
    </clipPath>
    <clipPath
       id="clip2">
      <path
         d="m 165,18 h 35.00391 V 53 H 165 Z m 0,0"
         id="path2" />
    </clipPath>
    <inkscape:path-effect
       effect="bspline"
       id="path-effect5-1"
       is_visible="true"
       lpeversion="1.3"
       weight="33.333333"
       steps="2"
       helper_size="0"
       apply_no_weight="true"
       apply_with_weight="true"
       only_selected="false"
       uniform="false" />
  </defs>
  <path
     style="fill:none;stroke:#000000;stroke-width:0.398;stroke-linecap:round;stroke-linejoin:round;stroke-miterlimit:10;stroke-dasharray:none;stroke-opacity:1"
     d="m 75.229511,74.417887 c 0,-11.674374 -9.309368,-21.135228 -20.796824,-21.135228 -11.482664,0 -20.796812,9.460855 -20.796812,21.135229 0,11.66952 9.314149,21.13523 20.796812,21.13523 11.487457,-10e-7 20.796824,-9.46571 20.796824,-21.135231 z m 0,0"
     id="path4" />
  <rect
     style="fill:#ffffff;stroke-width:0.5745"
     id="rect4-6"
     width="8.0091467"
     height="5.7530479"
     x="84.169937"
     y="44.235504" />
  <path
     style="fill:none;stroke:#000000;stroke-width:0.3985;stroke-linecap:round;stroke-linejoin:round;stroke-miterlimit:10;stroke-opacity:1"
     d="m 125.08874,68.057687 c 0,0 0.50191,-0.949789 0.68584,-1.316581 0.18924,-0.36837 0.4778,-0.962747 0.65486,-1.333234 0.17706,-0.370485 0.45532,-0.970403 0.62021,-1.343 0.16674,-0.376036 0.43123,-0.983358 0.58924,-1.359653 0.15641,-0.381588 0.40345,-0.989426 0.55114,-1.371273 0.14768,-0.381847 0.38096,-0.997086 0.51647,-1.381043 0.14081,-0.385546 0.35318,-1.003157 0.48525,-1.388964 0.12679,-0.384216 0.3254,-1.009226 0.4453,-1.397143 0.11646,-0.389766 0.30106,-1.013446 0.40879,-1.403473 0.11116,-0.388178 0.27486,-1.014225 0.37386,-1.404512 0.099,-0.390288 0.24523,-1.016855 0.33549,-1.407402 0.0868,-0.392397 0.22089,-1.021074 0.29899,-1.413731 0.0763,-0.389216 0.19284,-1.018414 0.26036,-1.40789 0.0694,-0.392916 0.16665,-1.019193 0.22544,-1.408929 0.0553,-0.391586 0.13861,-1.016533 0.18337,-1.404938 0.0501,-0.389995 0.11401,-1.012021 0.15004,-1.400687 0.036,-0.388665 0.086,-1.009361 0.11142,-1.394845 0.0255,-0.385485 0.0595,-1.00141 0.0744,-1.383714 0.0167,-0.385745 0.0315,-0.998749 0.0358,-1.377872 0.006,-0.382564 0.005,-0.990797 -0.001,-1.36674 -0.004,-0.379384 -0.0233,-0.979406 -0.0383,-1.355609 -0.0169,-0.372763 -0.0516,-0.968015 -0.0738,-1.339187 -0.0274,-0.369582 -0.078,-0.960063 -0.11263,-1.324614 -0.0346,-0.364552 -0.1029,-0.94682 -0.14807,-1.308191 -0.047,-0.357931 -0.12777,-0.93358 -0.18537,-1.28833 -0.0558,-0.35819 -0.15262,-0.920338 -0.21737,-1.270057 -0.0682,-0.351569 -0.18092,-0.908946 -0.25466,-1.250194 -0.0753,-0.346539 -0.2042,-0.890414 -0.28851,-1.228483 -0.0843,-0.338067 -0.23091,-0.873731 -0.32422,-1.203328 -0.0914,-0.333038 -0.24889,-0.856789 -0.35462,-1.179765 -0.1023,-0.321127 -0.27746,-0.836668 -0.38689,-1.152764 -0.11288,-0.317945 -0.30073,-0.818135 -0.41916,-1.125759 -0.12371,-0.306035 -0.3224,-0.794313 -0.45326,-1.095316 -0.13086,-0.301004 -0.34568,-0.775781 -0.48209,-1.066464 -0.13641,-0.290682 -0.36207,-0.753548 -0.51091,-1.03761 -0.1454,-0.282211 -0.38375,-0.729725 -0.53814,-1.003466 -0.15439,-0.273741 -0.40543,-0.705903 -0.56537,-0.969323 -0.16338,-0.265269 -0.42711,-0.68208 -0.59604,-0.937028 -0.16893,-0.254949 -0.44192,-0.654559 -0.62169,-0.897595 -0.17448,-0.244629 -0.46015,-0.628886 -0.64362,-0.865042 -0.18003,-0.234307 -0.4784,-0.603213 -0.66583,-0.823758 -0.18902,-0.225836 -0.49664,-0.57754 -0.69306,-0.789614 -0.19457,-0.215518 -0.508,-0.548167 -0.70997,-0.74992 -0.20197,-0.201752 -0.52809,-0.519054 -0.73561,-0.710486 -0.20408,-0.18958 -0.53945,-0.489681 -0.75093,-0.665501 -0.21308,-0.181108 -0.55425,-0.462159 -0.77128,-0.627658 -0.21519,-0.168936 -0.56746,-0.429345 -0.78476,-0.586115 -0.22258,-0.155178 -0.58067,-0.396533 -0.80351,-0.542983 -0.22496,-0.143006 -0.58886,-0.36531 -0.8191,-0.497994 -0.22681,-0.130825 -0.59651,-0.334087 -0.82887,-0.45459 -0.23235,-0.120521 -0.60972,-0.301271 -0.84418,-0.40962 -0.23447,-0.108339 -0.61235,-0.271641 -0.85422,-0.366224 -0.23657,-0.09618 -0.62212,-0.236974 -0.8608,-0.3209783 -0.24053,-0.080561 -0.6266,-0.2039036 -0.87268,-0.2741447 -0.24265,-0.068388 -0.63108,-0.17083 -0.87584,-0.2270499 -0.24475,-0.056216 -0.63899,-0.1396082 -0.88242,-0.1818064 -0.24686,-0.044044 -0.64004,-0.1046842 -0.88901,-0.1365612 -0.24368,-0.033465 -0.63923,-0.073203 -0.88687,-0.091059 -0.24764,-0.017856 -0.64556,-0.036688 -0.89187,-0.040523 -0.24446,-0.00728 -0.64474,-0.00521 -0.88788,0.00154 -0.24842,0.00834 -0.64578,0.029717 -0.89102,0.048635 -0.2471,0.022357 -0.64154,0.06305 -0.8873,0.099428 -0.24391,0.032939 -0.63728,0.096383 -0.8833,0.1414924 -0.24258,0.04696 -0.63304,0.129716 -0.87429,0.1906965 -0.24469,0.059131 -0.63222,0.161199 -0.87214,0.2362007 -0.24151,0.069711 -0.62453,0.1963811 -0.86127,0.2819643 -0.23833,0.080293 -0.61843,0.2262746 -0.85199,0.3224376 -0.2354,0.0996 -0.61258,0.264898 -0.84296,0.371642 -0.23223,0.110185 -0.59961,0.29849 -0.82866,0.419255 -0.22904,0.120766 -0.59165,0.324943 -0.814078,0.458139 -0.227717,0.134787 -0.583963,0.360125 -0.803209,0.503903 -0.221096,0.147218 -0.569131,0.390277 -0.787047,0.548075 -0.214475,0.15965 -0.557739,0.418581 -0.769034,0.58881 -0.211295,0.17023 -0.544758,0.452172 -0.751022,0.629543 -0.204674,0.182661 -0.529926,0.482324 -0.731419,0.675565 -0.199646,0.189801 -0.513245,0.509037 -0.711557,0.712859 -0.193024,0.202232 -0.498412,0.53919 -0.688254,0.752002 -0.186402,0.214663 -0.48173,0.565901 -0.66495,0.791145 -0.181373,0.221802 -0.465048,0.592613 -0.639798,0.826847 -0.176601,0.237675 -0.450216,0.622765 -0.616495,0.865991 -0.171573,0.244813 -0.431685,0.646035 -0.594786,0.89984 -0.159657,0.255657 -0.409712,0.671158 -0.562747,0.939246 -0.154629,0.262797 -0.391183,0.694428 -0.53734,0.966215 -0.144572,0.277075 -0.369202,0.719555 -0.505302,1.00562 -0.137684,0.280779 -0.350673,0.742825 -0.479885,1.032594 -0.125778,0.291617 -0.326851,0.764505 -0.447596,1.063263 -0.117306,0.300609 -0.304879,0.789627 -0.415302,1.093937 -0.108833,0.309598 -0.279206,0.807868 -0.383008,1.124607 -0.101955,0.313298 -0.256974,0.824259 -0.350455,1.146549 -0.09348,0.322289 -0.236592,0.84409 -0.319752,1.171931 -0.08157,0.333132 -0.207479,0.864181 -0.282168,1.201012 -0.07469,0.336826 -0.185242,0.880567 -0.24961,1.222948 -0.06437,0.342382 -0.161165,0.893523 -0.215211,1.241455 -0.05405,0.347931 -0.133641,0.908323 -0.177367,1.261805 -0.04373,0.353482 -0.106119,0.923124 -0.142964,1.280306 -0.0334,0.359032 -0.08204,0.936074 -0.10512,1.300656 -0.02652,0.362734 -0.0561,0.945585 -0.06887,1.315719 -0.01435,0.364842 -0.02673,0.956944 -0.03076,1.327337 -0.004,0.370393 -0.0026,0.969895 0.0055,1.342398 0.0063,0.375944 0.02513,0.975966 0.04359,1.354019 0.01502,0.376203 0.05292,0.982035 0.07826,1.363788 0.03063,0.380163 0.08414,0.989956 0.121652,1.373818 0.03936,0.380422 0.108482,0.994176 0.154724,1.378298 0.05153,0.382533 0.138115,0.996805 0.196529,1.383038 0.05841,0.386232 0.165897,1.002875 0.233042,1.389366 0.07243,0.384903 0.19024,1.007095 0.271405,1.392258 0.08117,0.385162 0.218282,1.004434 0.308178,1.389855 0.09334,0.387272 0.244475,1.005213 0.346543,1.392745 0.102068,0.387532 0.270667,1.005992 0.383315,1.390343 0.112649,0.384352 0.298709,1.003332 0.420089,1.387944 0.123229,0.381171 0.328601,0.99723 0.458711,1.382101 0.13196,0.38143 0.349763,0.990869 0.493895,1.37441 0.14254,0.37825 0.377805,0.988209 0.529077,1.366718 0.151272,0.37851 0.404258,0.980257 0.56611,1.355587 0.161853,0.37533 0.42886,0.975747 0.597854,1.346045 0.172434,0.372149 0.455312,0.967795 0.634886,1.334913 0.177723,0.370559 0.478323,0.957994 0.668479,1.321932 0.190154,0.363937 0.501335,0.948192 0.698631,1.307099 0.200736,0.360757 0.526197,0.934951 0.735923,1.287237 0.207877,0.355727 0.545769,0.923299 0.766077,1.272405 0.215017,0.350696 0.56719,0.908207 0.794638,1.252282 0.225598,0.347516 0.592052,0.894966 0.826641,1.234011 0.231148,0.337194 0.611883,0.874583 0.853612,1.208596 0.241729,0.334015 0.634895,0.864783 0.882175,1.188475 0.250719,0.325543 0.654727,0.8444 0.912587,1.164912 0.254423,0.318663 0.672703,0.827459 0.936113,1.137649 0.26156,0.313632 0.69254,0.807077 0.96309,1.112237 0.27056,0.305161 0.70709,0.788284 0.98663,1.084973 0.27425,0.29828 0.72347,0.766051 1.00671,1.05586 0.28324,0.28981 0.7433,0.745669 1.03209,1.025157 0.29224,0.281339 0.7597,0.723437 1.05219,0.996045 0.29593,0.274457 0.77079,0.702794 1.07412,0.96349 0.29805,0.262283 0.78375,0.678713 1.09078,0.932528 0.30359,0.251969 0.7967,0.65463 1.10584,0.896274 0.31073,0.246932 0.80965,0.630547 1.12249,0.865311 0.31628,0.236611 0.82259,0.606464 1.14099,0.830907 0.31839,0.224438 0.83051,0.575242 1.15261,0.792804 0.31865,0.21571 0.83817,0.552747 1.16238,0.758141 0.3242,0.205387 0.84609,0.521523 1.17585,0.716597 0.32446,0.196659 0.85375,0.499038 1.18032,0.683525 0.33187,0.182893 0.85984,0.471241 1.1938,0.64198 0.33212,0.174173 0.8659,0.44347 1.19484,0.607056 0.33424,0.161992 0.87382,0.412248 1.20488,0.563661 0.33449,0.153264 0.87459,0.386053 1.20776,0.525299 0.3366,0.141092 0.87193,0.358009 1.21064,0.486936 0.33343,0.130513 0.87457,0.328379 1.2101,0.446722 0.33553,0.118341 0.87375,0.296896 1.20796,0.401218 0.33579,0.109612 0.87453,0.270704 1.20899,0.366295 0.33446,0.09559 0.87028,0.237371 1.20156,0.322381 0.33314,0.08157 0.86763,0.209328 1.20102,0.282167 0.32995,0.07099 0.86152,0.179437 1.19173,0.241695 0.32862,0.05697 0.85542,0.149544 1.1843,0.197781 0.32544,0.04639 0.84931,0.119651 1.17501,0.157307 0.3257,0.03766 0.84322,0.08976 1.1623,0.114985 0.32252,0.02707 0.83711,0.05987 1.15301,0.07451 0.31934,0.01649 0.82572,0.03156 1.13844,0.03563 0.31616,0.0059 0.81433,0.0033 1.12387,-0.0033 0.31139,-0.01 0.80135,-0.03033 1.10771,-0.04743 0.30291,-0.01895 0.78996,-0.05863 1.08969,-0.08816 0.29974,-0.02953 0.77672,-0.08349 1.06983,-0.125455 0.29312,-0.04196 0.76189,-0.113647 1.05182,-0.166189 0.28809,-0.0491 0.7452,-0.140358 1.02667,-0.20189 0.28331,-0.06497 0.73037,-0.170512 1.00521,-0.244475 0.27484,-0.07396 0.71369,-0.197223 0.98006,-0.280176 0.26981,-0.0811 0.69357,-0.225786 0.95491,-0.31588 0.26319,-0.09353 0.67503,-0.249057 0.92631,-0.353432 0.25472,-0.102524 0.65491,-0.277619 0.90116,-0.389135 0.2481,-0.114955 0.63294,-0.30274 0.87257,-0.426687 0.23778,-0.120507 0.61097,-0.327863 0.84027,-0.45736 0.23116,-0.132936 0.589,-0.352984 0.80983,-0.491471 0.2174,-0.140337 0.56517,-0.374666 0.7741,-0.523993 0.21422,-0.150919 0.5432,-0.399788 0.74365,-0.558106 0.20046,-0.158319 0.51938,-0.42147 0.70951,-0.585338 0.19198,-0.167311 0.49027,-0.44156 0.67378,-0.61786 0.18166,-0.172857 0.46644,-0.463241 0.63619,-0.646942 0.17319,-0.181847 0.43733,-0.483332 0.6002,-0.670732 0.16128,-0.192691 0.40821,-0.503423 0.55917,-0.701664 0.15096,-0.198243 0.38254,-0.521667 0.52318,-0.725456 0.14064,-0.203793 0.35502,-0.536467 0.48374,-0.751098 0.12688,-0.211191 0.32406,-0.553115 0.44062,-0.769857 0.1184,-0.220182 0.29494,-0.573208 0.40117,-0.7955 0.10624,-0.222292 0.26742,-0.588009 0.3599,-0.817699 0.0925,-0.22969 0.2346,-0.601221 0.31676,-0.836461 0.0821,-0.235241 0.20523,-0.612579 0.27706,-0.853372 0.0665,-0.239203 0.17242,-0.625788 0.22864,-0.870542 0.0597,-0.242902 0.14305,-0.637149 0.18895,-0.887452 0.044,-0.246865 0.10838,-0.646919 0.14211,-0.899333 0.0337,-0.252411 0.0756,-0.660129 0.099,-0.918092 0.0216,-0.254523 0.0478,-0.6662 0.0537,-0.924683 0.0112,-0.260073 0.0131,-0.67597 0.0122,-0.938153 -0.006,-0.260593 -0.0199,-0.68045 -0.0365,-0.946593 -0.0184,-0.262703 -0.0512,-0.688369 -0.0817,-0.953182 -0.0306,-0.264813 -0.0842,-0.692849 -0.12698,-0.959772 -0.0409,-0.270362 -0.11732,-0.697328 -0.17223,-0.966361 -0.0515,-0.267182 -0.14695,-0.699958 -0.21403,-0.971101 -0.0689,-0.267702 -0.18187,-0.700998 -0.26298,-0.970809 -0.0777,-0.267962 -0.21679,-0.702037 -0.30662,-0.972109 -0.0898,-0.270071 -0.24828,-0.701226 -0.35214,-0.969967 -0.102,-0.272182 -0.27791,-0.703856 -0.39578,-0.971267 -0.11603,-0.270851 -0.31469,-0.701455 -0.4413,-0.969125 -0.1266,-0.267671 -0.34457,-0.695354 -0.4852,-0.961694 -0.14063,-0.266341 -0.37791,-0.691103 -0.52727,-0.957703 -0.15465,-0.26501 -0.4078,-0.685001 -0.57303,-0.94683 -0.16523,-0.26183 -0.43584,-0.682341 -0.6151,-0.94284 -0.17581,-0.258648 -0.46758,-0.672799 -0.65741,-0.930116 -0.1864,-0.255469 -0.49748,-0.666698 -0.6979,-0.920836 -0.19697,-0.252287 -0.52578,-0.655306 -0.73677,-0.906263 -0.211,-0.250958 -0.56097,-0.647614 -0.7791,-0.893541 -0.22343,-0.244337 -0.58927,-0.636223 -0.81983,-0.875529 -0.23216,-0.244597 -0.61572,-0.628272 -0.85687,-0.864397 -0.24459,-0.237976 -0.64587,-0.61344 -0.8976,-0.846384 -0.25357,-0.229503 -0.66729,-0.598348 -0.93145,-0.824672 -0.26415,-0.226325 -0.69559,-0.586956 -0.97218,-0.806659 -0.2713,-0.221297 -0.71702,-0.571864 -1.00075,-0.786537 -0.28372,-0.214674 -0.74902,-0.553591 -1.03989,-0.763233 -0.29431,-0.211488 -0.77044,-0.5385 -1.07374,-0.741521 -0.29986,-0.201175 -0.79371,-0.519967 -1.10415,-0.717959 -0.30885,-0.192702 -0.81514,-0.504872 -1.13642,-0.690953 -0.31599,-0.187673 -0.83496,-0.484493 -1.16338,-0.665545 -0.32843,-0.181043 -0.85824,-0.465956 -1.1938,-0.64198 -0.33397,-0.170738 -0.87992,-0.442142 -1.22103,-0.607835 -0.34456,-0.167542 -0.8979,-0.425198 -1.24801,-0.582418 -0.34826,-0.160665 -0.91773,-0.404811 -1.27153,-0.555161 -0.3591,-0.148757 -0.93413,-0.382582 -1.29692,-0.524457 -0.36465,-0.138435 -0.95051,-0.36035 -1.3223,-0.493753 -0.36834,-0.131557 -0.96346,-0.336269 -1.3408,-0.45935 -0.37204,-0.12467 -0.97985,-0.314036 -1.35745,-0.428387 -0.38103,-0.116198 -0.99624,-0.291804 -1.37939,-0.395835 -0.38658,-0.105884 -1.00575,-0.26587 -1.39604,-0.36487 -0.38869,-0.09371 -1.01526,-0.239938 -1.4111,-0.328617 -0.3924,-0.08683 -1.02822,-0.215856 -1.42431,-0.295804 -0.39795,-0.07651 -1.03773,-0.189924 -1.43593,-0.2577 -0.40165,-0.06963 -1.04539,-0.167431 -1.44915,-0.224888 -0.40375,-0.05745 -1.05489,-0.141498 -1.45892,-0.190224 -0.40586,-0.04528 -1.05911,-0.117156 -1.46524,-0.15371 -0.40956,-0.0384 -1.06518,-0.08937 -1.47501,-0.119047 -0.40824,-0.02438 -1.06597,-0.06318 -1.4779,-0.08068 -0.41194,-0.0175 -1.07019,-0.03884 -1.47894,-0.04576 -0.4122,-0.0088 -1.07097,-0.01265 -1.48527,-0.0092 -0.41246,-4e-5 -1.07175,0.01355 -1.48288,0.02753 -0.41456,0.01213 -1.07252,0.03974 -1.4839,0.06245 -0.41139,0.02271 -1.06987,0.06778 -1.48151,0.09922 -0.40821,0.03329 -1.06535,0.09238 -1.47382,0.134405 -0.40846,0.04202 -1.06613,0.118574 -1.47142,0.171178 -0.40528,0.0526 -1.05817,0.145026 -1.46372,0.206361 -0.4021,0.06319 -1.05023,0.171479 -1.45259,0.243394 -0.40237,0.07192 -1.045721,0.196081 -1.443054,0.275137 -0.399183,0.0825 -1.037766,0.222533 -1.431919,0.31217 -0.399443,0.09123 -1.027965,0.245544 -1.420788,0.349203 -0.390971,0.100217 -1.018163,0.268556 -1.405954,0.379355 -0.385939,0.107353 -1.004919,0.293413 -1.38768,0.411352 -0.384612,0.12138 -0.99168,0.318281 -1.371261,0.446801 -0.379581,0.12852 -0.978439,0.343142 -1.352989,0.478802 -0.371109,0.137511 -0.963347,0.364564 -1.329425,0.509215 -0.367929,0.148091 -0.950106,0.389426 -1.311154,0.541217 -0.359458,0.157083 -0.935013,0.410848 -1.28759,0.571629 -0.354428,0.164223 -0.914631,0.430679 -1.264028,0.602043 -0.344107,0.169773 -0.894249,0.450509 -1.235174,0.630863 -0.339076,0.176913 -0.877308,0.468491 -1.213203,0.655985 -0.330605,0.185904 -0.856924,0.488323 -1.179059,0.683217 -0.325573,0.193044 -0.838391,0.511594 -1.153645,0.710189 -0.317103,0.202035 -0.81616,0.527984 -1.122942,0.73557 -0.306782,0.207585 -0.793928,0.544376 -1.09224,0.760951 -0.299901,0.211286 -0.771694,0.560767 -1.057835,0.779453 -0.29143,0.220276 -0.746022,0.579008 -1.027132,0.804835 -0.27767,0.227676 -0.7185,0.593808 -0.989289,0.825184 -0.270788,0.231376 -0.696268,0.6102 -0.956735,0.847127 -0.260468,0.236926 -0.666895,0.621559 -0.917041,0.864036 -0.248296,0.239037 -0.642813,0.634511 -0.880788,0.879098 -0.239826,0.248027 -0.61344,0.645871 -0.846384,0.897598 -0.227654,0.250138 -0.584067,0.657231 -0.801401,0.912919 -0.217331,0.255688 -0.558133,0.666741 -0.765146,0.927978 -0.205159,0.257799 -0.526911,0.674662 -0.725192,0.936159 -0.194837,0.263351 -0.497539,0.686022 -0.683649,0.949629 -0.182674,0.265456 -0.466315,0.693942 -0.640255,0.95966 -0.170501,0.267566 -0.438535,0.700009 -0.596864,0.969686 -0.163623,0.271266 -0.410747,0.706084 -0.560347,0.976019 -0.146157,0.271787 -0.375833,0.707118 -0.511659,0.98446 -0.137437,0.272042 -0.346195,0.709751 -0.47145,0.983907 -0.121813,0.276008 -0.313122,0.714231 -0.422762,0.992349 -0.113084,0.276267 -0.283492,0.716858 -0.382551,0.991796 -0.09906,0.274938 -0.252006,0.716049 -0.338897,0.993096 -0.08504,0.273607 -0.215233,0.713647 -0.293394,0.990953 -0.07287,0.275718 -0.18375,0.712838 -0.24789,0.988814 -0.05884,0.274387 -0.152267,0.712025 -0.200535,0.98323 -0.05012,0.274647 -0.120784,0.711216 -0.160321,0.982681 -0.03424,0.269877 -0.0856,0.703524 -0.111119,0.973658 -0.02552,0.270135 -0.05227,0.699273 -0.0672,0.966226 -0.01149,0.268805 -0.02238,0.693172 -0.02329,0.958796 9.36e-4,0.262183 0.0094,0.683629 0.02247,0.947923 0.01152,0.259003 0.04111,0.674088 0.06665,0.93176 0.02369,0.261113 0.071,0.667988 0.10712,0.922479 0.03612,0.254492 0.108034,0.656856 0.154734,0.908166 0.04855,0.247872 0.136337,0.645465 0.198908,0.892005 0.06098,0.241249 0.166489,0.630631 0.239641,0.873992 0.07156,0.238069 0.198232,0.62109 0.285665,0.854388 0.08214,0.234889 0.228384,0.606258 0.322957,0.834526 0.09801,0.230118 0.261976,0.593277 0.367131,0.818364 0.107004,0.221648 0.290538,0.573154 0.408124,0.791621 0.119435,0.215026 0.320691,0.558322 0.450706,0.770167 0.126577,0.209996 0.347403,0.54164 0.48641,0.745015 0.140857,0.199935 0.375965,0.521518 0.527403,0.718272 0.151437,0.196754 0.402677,0.504835 0.563106,0.693118 0.165717,0.186695 0.431239,0.484713 0.605948,0.662935 0.169416,0.179816 0.45451,0.466181 0.63821,0.635932 0.181848,0.173194 0.479633,0.444208 0.672323,0.605487 0.19428,0.166573 0.510044,0.420646 0.709876,0.576895 0.201682,0.152807 0.531724,0.396826 0.742397,0.541161 0.212263,0.149628 0.556846,0.374854 0.776511,0.510716 0.217813,0.139307 0.578527,0.351032 0.807183,0.478422 0.228656,0.127391 0.60206,0.323765 0.836258,0.440851 0.237638,0.118936 0.623741,0.299942 0.866935,0.408547 0.243193,0.108606 0.643835,0.270827 0.896019,0.37096 0.250596,0.09484 0.662076,0.245153 0.919809,0.334968 0.259582,0.08638 0.680315,0.219485 0.94889,0.297385 0.265134,0.07605 0.700406,0.190372 0.971091,0.256101 0.274124,0.06758 0.718647,0.164698 0.998323,0.221957 0.279675,0.05726 0.730007,0.135325 1.015234,0.182263 0.287078,0.04349 0.750098,0.106212 1.040875,0.142829 0.289186,0.03133 0.761458,0.07684 1.056195,0.09785 0.296327,0.02629 0.774409,0.05276 1.074696,0.06344 0.303727,0.01253 0.78762,0.01994 1.093457,0.02031 0.305837,3.63e-4 0.798981,-0.0094 1.110368,-0.01939 0.307946,-0.01181 0.8069,-0.04065 1.120396,-0.06278 0.313498,-0.02213 0.818261,-0.07003 1.133869,-0.104325 0.319047,-0.03245 0.82777,-0.09596 1.145487,-0.142428 0.319567,-0.04991 0.8341,-0.132471 1.157368,-0.189263 0.323267,-0.05679 0.83832,-0.156813 1.163697,-0.225776 0.321937,-0.07081 0.8428,-0.189886 1.170287,-0.271021 0.324047,-0.08298 0.84887,-0.217668 1.175027,-0.312824 0.327747,-0.08987 0.851499,-0.247301 1.177916,-0.351187 0.328266,-0.107327 0.855978,-0.280374 1.184505,-0.396432 0.328526,-0.116057 0.853318,-0.308416 1.183954,-0.436645 0.325346,-0.126639 0.852508,-0.339899 1.183404,-0.476859 0.325605,-0.13537 0.849847,-0.367942 1.177558,-0.515482 0.32957,-0.15098 0.85248,-0.397574 1.17887,-0.559136 0.32638,-0.161561 0.84981,-0.425617 1.17302,-0.597759 0.3232,-0.172143 0.84371,-0.45551 1.16717,-0.636383 0.32003,-0.182723 0.83762,-0.485401 1.1579,-0.676855 0.32028,-0.191454 0.8331,-0.510004 1.15206,-0.715479 0.3171,-0.202035 0.82515,-0.536456 1.13907,-0.749072 0.31577,-0.216056 0.81905,-0.566349 1.12979,-0.789545 0.31259,-0.226637 0.80766,-0.594651 1.11522,-0.828428 0.30756,-0.233778 0.79786,-0.617663 1.10224,-0.862021 0.30253,-0.240918 0.78805,-0.640674 1.08396,-0.894023 0.3012,-0.25494 0.77667,-0.668977 1.07284,-0.931056 0.29273,-0.26393 0.76157,-0.690398 1.05112,-0.96491 0.2877,-0.27107 0.74648,-0.711818 1.031,-0.99347 0.28452,-0.281651 0.73508,-0.740122 1.01272,-1.025473 0.27605,-0.290642 0.72,-0.761543 0.99102,-1.059326 0.27102,-0.29778 0.70305,-0.779524 0.9656,-1.086298 0.26598,-0.304925 0.68452,-0.802796 0.94547,-1.114859 0.25753,-0.313912 0.66759,-0.820778 0.92007,-1.141831 0.24905,-0.322903 0.6472,-0.840609 0.89121,-1.170653 0.24561,-0.324755 0.63026,-0.858591 0.86739,-1.192335 0.23714,-0.333746 0.60803,-0.874982 0.84013,-1.215867 0.22681,-0.339296 0.58579,-0.891372 0.80757,-1.237807 0.22178,-0.346435 0.56885,-0.909354 0.78031,-1.261341 0.21146,-0.351986 0.5482,-0.920455 0.7512,-1.281428 0.20458,-0.355685 0.71838,-1.294641 0.71838,-1.294641"
     id="path3" />
  <rect
     style="fill:#ffffff;stroke-width:0.422705"
     id="rect4-3"
     width="7.1846766"
     height="3.4719338"
     x="66.091393"
     y="87.95047" />
  <g
     id="surface1"
     transform="translate(-7.6707302,14.213412)">
    <g
       clip-path="url(#clip2)"
       clip-rule="nonzero"
       id="g4"
       transform="matrix(1.2227801,-2.3510353e-8,1.9355999e-8,1.2426777,-135.25401,12.532534)">
      <g
         clip-path="url(#clip1)"
         clip-rule="nonzero"
         id="g3"
         transform="matrix(0.387332,-0.70873428,0.72026711,0.38113009,184.8177,43.353659)"
         inkscape:transform-center-x="4.6057645e-06"
         inkscape:transform-center-y="9.4756351" />
    </g>
  </g>
  <rect
     style="fill:#ffffff;stroke-width:0.5745"
     id="rect4-6-7"
     width="8.0091467"
     height="5.7530479"
     x="127.63679"
     y="43.99725" />
  <rect
     style="fill:#ffffff;stroke-width:0.5745"
     id="rect4-6-7-5"
     width="8.0091467"
     height="5.7530479"
     x="107.2625"
     y="83.359795" />
  <rect
     style="fill:#ffffff;stroke-width:0.5745"
     id="rect4-6-7-5-3"
     width="8.0091467"
     height="5.7530479"
     x="84.104668"
     y="45.526241" />
  <path
     style="fill:none;fill-rule:evenodd;stroke:#000000;stroke-width:0.398;stroke-linecap:butt;stroke-linejoin:miter;stroke-dasharray:none;stroke-opacity:1"
     d="m 87.284645,45.448484 1.0513,5.945389"
     id="path11"
     inkscape:connector-type="polyline"
     inkscape:connector-curvature="0"
     sodipodi:nodetypes="cccc" />
  <path
     style="fill:#ffffff;stroke-width:0.5745"
     d="m 73.463636,103.6946 c 3.48307,-1.19648 6.966146,-2.39295 9.478764,-2.18023 2.512618,0.21273 4.054709,1.83458 4.812461,2.64553 0.757751,0.81094 0.731201,0.81094 0.704611,0.81094"
     id="path5"
     inkscape:path-effect="#path-effect5"
     inkscape:original-d="m 73.463636,103.6946 c 3.483072,-1.19647 6.966147,-2.39295 10.449221,-3.58943 1.542158,1.62193 3.084255,3.24378 4.626375,4.86567 -0.02662,0 -0.05317,0 -0.07976,0"
     transform="translate(-26.162945,3.8287237)" />
  <path
     style="fill:#ffffff;stroke-width:0.5745"
     d="m 18.026908,53.123542 -5.583556,0.31906"
     id="path7" />
  <rect
     style="fill:#ffffff;stroke-width:0.5745"
     id="rect4"
     width="8.0091467"
     height="5.7530479"
     x="66.449844"
     y="58.313465" />
  <path
     style="fill:none;fill-rule:evenodd;stroke:#000000;stroke-width:0.401276;stroke-linecap:butt;stroke-linejoin:miter;stroke-dasharray:none;stroke-opacity:1"
     d="m 127.56265,45.182383 8.31971,3.117756"
     id="path10"
     inkscape:connector-type="polyline"
     inkscape:connector-curvature="0"
     sodipodi:nodetypes="cccccc" />
  <path
     style="fill:none;fill-rule:evenodd;stroke:#000000;stroke-width:0.398;stroke-linecap:butt;stroke-linejoin:miter;stroke-dasharray:none;stroke-opacity:1"
     d="m 107.11281,88.329572 6.58407,-5.303818"
     id="path12"
     inkscape:connector-type="polyline"
     inkscape:connector-curvature="0"
     sodipodi:nodetypes="ccc" />
  <path
     style="fill:none;fill-rule:evenodd;stroke:#000000;stroke-width:0.398;stroke-linecap:butt;stroke-linejoin:miter;stroke-dasharray:none;stroke-opacity:1"
     d="m 66.525251,91.62885 3.952438,-3.775996"
     id="path12-6"
     inkscape:connector-type="polyline"
     inkscape:connector-curvature="0"
     sodipodi:nodetypes="ccc" />
  <path
     style="fill:none;fill-rule:evenodd;stroke:#000000;stroke-width:0.398;stroke-linecap:butt;stroke-linejoin:miter;stroke-dasharray:none;stroke-opacity:1"
     d="m 67.94129,64.436267 5.056161,-6.546336"
     id="path10-2"
     inkscape:connector-type="polyline"
     inkscape:connector-curvature="0"
     sodipodi:nodetypes="cccc"
     inkscape:transform-center-x="-0.59261894"
     inkscape:transform-center-y="-0.60082512" />
  <text
     xml:space="preserve"
     style="font-size:13.291px;text-align:start;writing-mode:lr-tb;direction:ltr;text-anchor:start;fill:#2b1100;stroke-width:0.240446;stroke-dasharray:none"
     x="49.912567"
     y="37.595909"
     id="text14"
     transform="scale(1.0202011,0.9801989)"><tspan
       sodipodi:role="line"
       id="tspan14"
       style="stroke-width:0.240446"
       x="49.912567"
       y="37.595909">L</tspan></text>
  <text
     xml:space="preserve"
     style="font-size:11.6988px;text-align:start;writing-mode:lr-tb;direction:ltr;text-anchor:start;fill:#2b1100;stroke-width:0.211642;stroke-dasharray:none"
     x="21.580681"
     y="64.465805"
     id="text14-6"
     transform="scale(1.0176433,0.98266258)"><tspan
       sodipodi:role="line"
       id="tspan14-3"
       style="stroke-width:0.211642"
       x="21.580681"
       y="64.465805">K</tspan></text>
  <text
     xml:space="preserve"
     style="font-size:11.6988px;text-align:start;writing-mode:lr-tb;direction:ltr;text-anchor:start;fill:#2b1100;stroke-width:0.211642;stroke-dasharray:none"
     x="147.7171"
     y="46.997913"
     id="text14-6-2"
     transform="scale(1.0176433,0.98266258)"><tspan
       sodipodi:role="line"
       id="tspan14-3-0"
       style="stroke-width:0.211642"
       x="147.7171"
       y="46.997913">K</tspan></text>
  <text
     xml:space="preserve"
     style="font-size:5.70722px;text-align:start;writing-mode:lr-tb;direction:ltr;text-anchor:start;fill:#2b1100;stroke-width:0.103249;stroke-dasharray:none"
     x="29.071512"
     y="66.482719"
     id="text15"
     transform="scale(1.0214234,0.97902594)"><tspan
       sodipodi:role="line"
       id="tspan15"
       style="stroke-width:0.103249"
       x="29.071512"
       y="66.482719">1</tspan><tspan
       sodipodi:role="line"
       style="stroke-width:0.103249"
       x="29.071512"
       y="73.616745"
       id="tspan16" /></text>
  <text
     xml:space="preserve"
     style="font-size:5.23372px;text-align:start;writing-mode:lr-tb;direction:ltr;text-anchor:start;fill:#2b1100;stroke-width:0.0946828;stroke-dasharray:none"
     x="151.55466"
     y="50.56918"
     id="text17"
     transform="scale(1.0427245,0.95902609)"><tspan
       sodipodi:role="line"
       id="tspan17"
       style="stroke-width:0.0946828"
       x="151.55466"
       y="50.56918">2</tspan></text>
  <path
     style="fill:none;stroke:#000000;stroke-width:0.398;stroke-linecap:round;stroke-linejoin:round;stroke-miterlimit:10;stroke-dasharray:none;stroke-opacity:1"
     d="m 275.37596,72.631331 c 0,-11.674374 -9.30936,-21.135228 -20.79682,-21.135228 -11.48266,0 -20.79681,9.460855 -20.79681,21.135229 0,11.66952 9.31415,21.135229 20.79681,21.135229 11.48746,0 20.79682,-9.46571 20.79682,-21.13523 z m 0,0"
     id="path4-5" />
  <rect
     style="fill:#ffffff;stroke-width:0.5745"
     id="rect4-6-5"
     width="8.0091467"
     height="5.7530479"
     x="284.31641"
     y="42.448952" />
  <path
     style="fill:none;stroke:#000000;stroke-width:0.3985;stroke-linecap:round;stroke-linejoin:round;stroke-miterlimit:10;stroke-opacity:1"
     d="m 325.23519,66.271131 c 0,0 0.50191,-0.949789 0.68584,-1.316581 0.18924,-0.36837 0.4778,-0.962748 0.65486,-1.333235 0.17706,-0.370485 0.45532,-0.970402 0.62021,-1.342999 0.16674,-0.376036 0.43123,-0.983359 0.58924,-1.359653 0.15641,-0.381588 0.40345,-0.989426 0.55114,-1.371274 0.14768,-0.381846 0.38096,-0.997085 0.51647,-1.381043 0.14081,-0.385545 0.35318,-1.003157 0.48525,-1.388964 0.12679,-0.384216 0.3254,-1.009225 0.4453,-1.397143 0.11646,-0.389766 0.30106,-1.013446 0.40879,-1.403472 0.11116,-0.388179 0.27486,-1.014226 0.37386,-1.404512 0.099,-0.390288 0.24523,-1.016855 0.33549,-1.407402 0.0868,-0.392397 0.22089,-1.021074 0.29899,-1.413731 0.0763,-0.389216 0.19284,-1.018414 0.26036,-1.40789 0.0694,-0.392916 0.16665,-1.019193 0.22544,-1.408929 0.0553,-0.391586 0.13861,-1.016533 0.18337,-1.404938 0.0501,-0.389995 0.11401,-1.012021 0.15004,-1.400687 0.036,-0.388665 0.086,-1.009361 0.11142,-1.394845 0.0255,-0.385485 0.0595,-1.00141 0.0744,-1.383714 0.0167,-0.385745 0.0315,-0.998749 0.0358,-1.377872 0.006,-0.382564 0.005,-0.990797 -0.001,-1.36674 -0.004,-0.379384 -0.0233,-0.979406 -0.0383,-1.355609 -0.0169,-0.372763 -0.0516,-0.968015 -0.0738,-1.339187 -0.0274,-0.369582 -0.078,-0.960063 -0.11263,-1.324614 -0.0346,-0.364552 -0.1029,-0.94682 -0.14807,-1.308191 -0.047,-0.357931 -0.12777,-0.93358 -0.18537,-1.28833 -0.0558,-0.35819 -0.15262,-0.920338 -0.21737,-1.270057 -0.0682,-0.351569 -0.18092,-0.908946 -0.25466,-1.250194 -0.0753,-0.346539 -0.2042,-0.890414 -0.28851,-1.228483 -0.0843,-0.338067 -0.23091,-0.873731 -0.32422,-1.203328 -0.0914,-0.333038 -0.24889,-0.856789 -0.35462,-1.179765 -0.1023,-0.321127 -0.27746,-0.836668 -0.38689,-1.152764 -0.11288,-0.317945 -0.30073,-0.818135 -0.41916,-1.125759 -0.12371,-0.306035 -0.3224,-0.794313 -0.45326,-1.095316 -0.13086,-0.301004 -0.34568,-0.775781 -0.48209,-1.066464 -0.13641,-0.290682 -0.36207,-0.753548 -0.51091,-1.03761 -0.1454,-0.282211 -0.38375,-0.729725 -0.53814,-1.003466 -0.15439,-0.273741 -0.40543,-0.705903 -0.56537,-0.969323 -0.16338,-0.265269 -0.42711,-0.68208 -0.59604,-0.937028 -0.16893,-0.254949 -0.44192,-0.654559 -0.62169,-0.897595 -0.17448,-0.244629 -0.46015,-0.628886 -0.64362,-0.865042 -0.18003,-0.234307 -0.4784,-0.603213 -0.66583,-0.823758 -0.18902,-0.225836 -0.49664,-0.57754 -0.69306,-0.789614 -0.19457,-0.215518 -0.508,-0.548167 -0.70997,-0.74992 -0.20197,-0.201752 -0.52809,-0.519054 -0.73561,-0.710486 -0.20408,-0.18958 -0.53945,-0.489681 -0.75093,-0.665501 -0.21308,-0.181108 -0.55425,-0.462159 -0.77128,-0.627658 -0.21519,-0.168936 -0.56746,-0.429345 -0.78476,-0.586115 -0.22258,-0.155178 -0.58067,-0.396533 -0.80351,-0.542983 -0.22496,-0.143007 -0.58886,-0.3653099 -0.8191,-0.4979939 -0.22681,-0.130826 -0.59651,-0.334088 -0.82887,-0.454591 -0.23235,-0.120521 -0.60972,-0.30127 -0.84418,-0.409619 -0.23447,-0.10834 -0.61235,-0.271641 -0.85422,-0.366224 -0.23657,-0.09618 -0.62212,-0.236975 -0.8608,-0.320979 -0.24053,-0.08056 -0.6266,-0.203904 -0.87268,-0.274145 -0.24265,-0.06839 -0.63108,-0.17083 -0.87583,-0.22705 -0.24476,-0.05621 -0.639,-0.139608 -0.88243,-0.181806 -0.24686,-0.04404 -0.64003,-0.104684 -0.88901,-0.136561 -0.24368,-0.03346 -0.63923,-0.0732 -0.88687,-0.09106 -0.24764,-0.01786 -0.64556,-0.03669 -0.89187,-0.04052 -0.24446,-0.0073 -0.64474,-0.0052 -0.88788,0.0015 -0.24842,0.0083 -0.64578,0.02972 -0.89102,0.04863 -0.24709,0.02236 -0.64154,0.06305 -0.8873,0.09943 -0.24391,0.03294 -0.63728,0.09638 -0.8833,0.141492 -0.24258,0.04696 -0.63304,0.129716 -0.87428,0.190697 -0.2447,0.05913 -0.63223,0.161199 -0.87215,0.2362 -0.24151,0.06971 -0.62453,0.196382 -0.86127,0.281965 -0.23833,0.08029 -0.61843,0.226274 -0.85199,0.322437 -0.2354,0.0996 -0.61258,0.264898 -0.84296,0.371642 -0.23223,0.110185 -0.59961,0.29849 -0.82865,0.419255 -0.22905,0.120767 -0.59166,0.324943 -0.81409,0.45814 -0.22771,0.134786 -0.58396,0.3601249 -0.80321,0.5039019 -0.22109,0.147218 -0.56913,0.390277 -0.78704,0.548075 -0.21448,0.15965 -0.55774,0.418581 -0.76904,0.588811 -0.21129,0.17023 -0.54475,0.452171 -0.75102,0.629542 -0.20467,0.182661 -0.52992,0.482325 -0.73142,0.675566 -0.19964,0.189801 -0.51324,0.509037 -0.71155,0.712858 -0.19303,0.202233 -0.49842,0.539191 -0.68826,0.752003 -0.1864,0.214662 -0.48173,0.565901 -0.66495,0.791145 -0.18137,0.221802 -0.46505,0.592613 -0.6398,0.826847 -0.1766,0.237675 -0.45021,0.622764 -0.61649,0.86599 -0.17157,0.244813 -0.43169,0.646036 -0.59479,0.899841 -0.15965,0.255656 -0.40971,0.671157 -0.56274,0.939246 -0.15463,0.262797 -0.39119,0.694427 -0.53734,0.966215 -0.14458,0.277075 -0.36921,0.719555 -0.50531,1.00562 -0.13768,0.280779 -0.35067,0.742825 -0.47988,1.032594 -0.12578,0.291617 -0.32685,0.764505 -0.4476,1.063263 -0.1173,0.300609 -0.30488,0.789627 -0.4153,1.093937 -0.10883,0.309598 -0.2792,0.807868 -0.38301,1.124607 -0.10195,0.313298 -0.25697,0.824259 -0.35045,1.146549 -0.0935,0.322289 -0.23659,0.84409 -0.31975,1.171931 -0.0816,0.333132 -0.20748,0.864181 -0.28217,1.201012 -0.0747,0.336826 -0.18524,0.880567 -0.24961,1.222948 -0.0644,0.342382 -0.16117,0.893523 -0.21521,1.241455 -0.0541,0.34793 -0.13364,0.908322 -0.17737,1.261804 -0.0437,0.353482 -0.10612,0.923125 -0.14296,1.280307 -0.0334,0.359032 -0.082,0.936074 -0.10512,1.300655 -0.0265,0.362735 -0.0561,0.945586 -0.0689,1.31572 -0.0143,0.364842 -0.0267,0.956944 -0.0308,1.327337 -0.004,0.370393 -0.003,0.969895 0.005,1.342398 0.006,0.375944 0.0251,0.975966 0.0436,1.354019 0.015,0.376203 0.0529,0.982035 0.0783,1.363788 0.0306,0.380163 0.0841,0.989956 0.12165,1.373818 0.0394,0.380422 0.10848,0.994176 0.15472,1.378298 0.0515,0.382533 0.13812,0.996805 0.19653,1.383038 0.0584,0.386232 0.1659,1.002875 0.23304,1.389366 0.0724,0.384903 0.19024,1.007095 0.27141,1.392258 0.0812,0.385162 0.21828,1.004434 0.30818,1.389855 0.0933,0.387272 0.24447,1.005212 0.34654,1.392744 0.10207,0.387532 0.27067,1.005992 0.38331,1.390344 0.11265,0.384352 0.29871,1.003332 0.42009,1.387943 0.12323,0.381172 0.3286,0.997231 0.45871,1.382101 0.13196,0.38143 0.34977,0.990869 0.4939,1.37441 0.14254,0.37825 0.3778,0.988209 0.52908,1.366718 0.15127,0.37851 0.40425,0.980257 0.56611,1.355588 0.16185,0.375329 0.42886,0.975746 0.59785,1.346044 0.17243,0.372149 0.45531,0.967795 0.63489,1.334913 0.17772,0.370559 0.47832,0.957994 0.66847,1.321932 0.19016,0.363937 0.50134,0.948192 0.69864,1.307099 0.20073,0.360757 0.52619,0.934951 0.73592,1.287237 0.20788,0.355727 0.54577,0.923299 0.76608,1.272405 0.21501,0.350696 0.56719,0.908208 0.79463,1.252282 0.2256,0.347516 0.59206,0.894966 0.82664,1.234011 0.23115,0.337194 0.61189,0.874583 0.85362,1.208596 0.24173,0.334015 0.63489,0.864783 0.88217,1.188475 0.25072,0.325543 0.65473,0.8444 0.91259,1.164912 0.25442,0.318663 0.67271,0.827459 0.93612,1.137649 0.26156,0.313632 0.69254,0.807077 0.96309,1.112237 0.27055,0.305161 0.70708,0.788284 0.98662,1.084973 0.27425,0.29828 0.72347,0.766051 1.00671,1.05586 0.28324,0.28981 0.7433,0.745669 1.03209,1.025157 0.29224,0.281339 0.7597,0.723437 1.05219,0.996045 0.29593,0.274457 0.77079,0.702794 1.07413,0.96349 0.29804,0.262283 0.78374,0.678713 1.09077,0.932528 0.30359,0.251969 0.7967,0.65463 1.10584,0.896274 0.31073,0.246932 0.80965,0.630547 1.12249,0.865311 0.31628,0.236611 0.82259,0.606464 1.14099,0.830907 0.31839,0.224438 0.83051,0.575242 1.15261,0.792804 0.31865,0.21571 0.83818,0.552747 1.16238,0.758141 0.3242,0.205387 0.8461,0.521523 1.17585,0.716597 0.32446,0.196659 0.85375,0.499038 1.18033,0.683525 0.33186,0.182893 0.85983,0.471241 1.1938,0.64198 0.33212,0.174173 0.86589,0.44347 1.19483,0.607056 0.33424,0.161992 0.87382,0.412248 1.20488,0.563661 0.33449,0.153264 0.87459,0.386053 1.20776,0.525299 0.3366,0.141092 0.87193,0.358009 1.21064,0.486936 0.33343,0.130513 0.87457,0.328379 1.2101,0.446722 0.33553,0.118341 0.87375,0.296896 1.20796,0.401218 0.33579,0.109612 0.87453,0.270704 1.20899,0.366295 0.33446,0.09559 0.87028,0.237371 1.20156,0.322381 0.33314,0.08157 0.86763,0.209328 1.20102,0.282167 0.32995,0.07099 0.86152,0.179437 1.19173,0.241695 0.32862,0.05697 0.85542,0.149544 1.1843,0.197781 0.32544,0.04639 0.84931,0.119651 1.17501,0.157307 0.3257,0.03766 0.84322,0.08976 1.1623,0.114985 0.32252,0.02707 0.83711,0.05987 1.15301,0.07451 0.31934,0.01649 0.82572,0.03156 1.13844,0.03563 0.31616,0.0059 0.81433,0.0033 1.12387,-0.0033 0.31139,-0.01 0.80135,-0.03033 1.10771,-0.04743 0.30291,-0.01895 0.78996,-0.05863 1.08969,-0.08816 0.29974,-0.02953 0.77672,-0.08349 1.06983,-0.125455 0.29312,-0.04196 0.76189,-0.113647 1.05182,-0.166189 0.28809,-0.0491 0.7452,-0.140358 1.02667,-0.20189 0.28331,-0.06497 0.73037,-0.170512 1.00521,-0.244475 0.27484,-0.07396 0.71369,-0.197223 0.98006,-0.280176 0.26981,-0.0811 0.69357,-0.225786 0.95491,-0.31588 0.26319,-0.09353 0.67503,-0.249057 0.92631,-0.353432 0.25472,-0.102524 0.65491,-0.277619 0.90116,-0.389135 0.2481,-0.114955 0.63294,-0.30274 0.87257,-0.426687 0.23778,-0.120507 0.61097,-0.327863 0.84027,-0.45736 0.23116,-0.132936 0.589,-0.352984 0.80983,-0.491471 0.2174,-0.140337 0.56517,-0.374666 0.7741,-0.523993 0.21422,-0.150919 0.5432,-0.399788 0.74365,-0.558106 0.20046,-0.158319 0.51938,-0.42147 0.70951,-0.585338 0.19198,-0.167311 0.49027,-0.44156 0.67378,-0.61786 0.18166,-0.172857 0.46644,-0.463241 0.63619,-0.646942 0.17319,-0.181847 0.43733,-0.483332 0.6002,-0.670732 0.16128,-0.192691 0.40821,-0.503423 0.55917,-0.701664 0.15096,-0.198243 0.38254,-0.521667 0.52318,-0.725456 0.14064,-0.203793 0.35502,-0.536467 0.48374,-0.751098 0.12688,-0.211191 0.32406,-0.553115 0.44062,-0.769857 0.1184,-0.220182 0.29494,-0.573208 0.40117,-0.7955 0.10624,-0.222292 0.26742,-0.588009 0.3599,-0.817699 0.0925,-0.22969 0.2346,-0.601221 0.31676,-0.836461 0.0821,-0.235241 0.20523,-0.612579 0.27706,-0.853372 0.0665,-0.239203 0.17242,-0.625788 0.22864,-0.870542 0.0597,-0.242902 0.14305,-0.637149 0.18895,-0.887452 0.044,-0.246865 0.10838,-0.646919 0.14211,-0.899333 0.0337,-0.25241 0.0756,-0.660129 0.099,-0.918092 0.0216,-0.254523 0.0478,-0.6662 0.0537,-0.924683 0.0112,-0.260073 0.0131,-0.67597 0.0122,-0.938153 -0.006,-0.260593 -0.0199,-0.680449 -0.0365,-0.946593 -0.0184,-0.262703 -0.0512,-0.688369 -0.0817,-0.953182 -0.0306,-0.264813 -0.0842,-0.692849 -0.12698,-0.959772 -0.0409,-0.270362 -0.11732,-0.697328 -0.17223,-0.966361 -0.0515,-0.267182 -0.14695,-0.699958 -0.21403,-0.971101 -0.0689,-0.267702 -0.18187,-0.700998 -0.26298,-0.970809 -0.0777,-0.267962 -0.21679,-0.702037 -0.30662,-0.972109 -0.0898,-0.270071 -0.24828,-0.701226 -0.35214,-0.969967 -0.102,-0.272182 -0.27791,-0.703856 -0.39578,-0.971267 -0.11603,-0.270851 -0.31469,-0.701455 -0.4413,-0.969125 -0.1266,-0.267671 -0.34457,-0.695354 -0.4852,-0.961694 -0.14063,-0.266341 -0.37791,-0.691103 -0.52727,-0.957703 -0.15465,-0.26501 -0.4078,-0.685001 -0.57303,-0.94683 -0.16523,-0.26183 -0.43584,-0.682341 -0.6151,-0.94284 -0.17581,-0.258648 -0.46758,-0.672799 -0.65741,-0.930116 -0.1864,-0.255469 -0.49748,-0.666698 -0.6979,-0.920836 -0.19697,-0.252287 -0.52578,-0.655306 -0.73677,-0.906263 -0.211,-0.250958 -0.56097,-0.647614 -0.7791,-0.893541 -0.22343,-0.244337 -0.58927,-0.636223 -0.81983,-0.875529 -0.23216,-0.244597 -0.61572,-0.628272 -0.85687,-0.864397 -0.24459,-0.237976 -0.64587,-0.61344 -0.8976,-0.846384 -0.25357,-0.229503 -0.66729,-0.598348 -0.93145,-0.824672 -0.26415,-0.226325 -0.69559,-0.586956 -0.97218,-0.806659 -0.2713,-0.221297 -0.71702,-0.571864 -1.00075,-0.786537 -0.28372,-0.214674 -0.74902,-0.553591 -1.03989,-0.763233 -0.29431,-0.211488 -0.77044,-0.5385 -1.07374,-0.741521 -0.29986,-0.201175 -0.79371,-0.519967 -1.10415,-0.717959 -0.30885,-0.192702 -0.81514,-0.504872 -1.13642,-0.690953 -0.31599,-0.187673 -0.83496,-0.484493 -1.16338,-0.665545 -0.32843,-0.181043 -0.85824,-0.465956 -1.1938,-0.64198 -0.33397,-0.170738 -0.87992,-0.442142 -1.22103,-0.607835 -0.34456,-0.167542 -0.8979,-0.425198 -1.24801,-0.582418 -0.34826,-0.160665 -0.91773,-0.404811 -1.27153,-0.555161 -0.3591,-0.148757 -0.93413,-0.382582 -1.29692,-0.524457 -0.36465,-0.138435 -0.95051,-0.36035 -1.3223,-0.493753 -0.36834,-0.131557 -0.96346,-0.336269 -1.3408,-0.45935 -0.37204,-0.12467 -0.97985,-0.314036 -1.35745,-0.428387 -0.38103,-0.116198 -0.99624,-0.291804 -1.37939,-0.395835 -0.38658,-0.105884 -1.00575,-0.26587 -1.39604,-0.36487 -0.38869,-0.09371 -1.01526,-0.239938 -1.4111,-0.328617 -0.3924,-0.08683 -1.02822,-0.215856 -1.42431,-0.295804 -0.39795,-0.07651 -1.03773,-0.189924 -1.43593,-0.2577 -0.40165,-0.06963 -1.04539,-0.167431 -1.44915,-0.224888 -0.40375,-0.05745 -1.05489,-0.141498 -1.45891,-0.190224 -0.40587,-0.04528 -1.05912,-0.117156 -1.46525,-0.15371 -0.40956,-0.0384 -1.06518,-0.08937 -1.47501,-0.119047 -0.40824,-0.02438 -1.06597,-0.06318 -1.4779,-0.08068 -0.41194,-0.0175 -1.07019,-0.03884 -1.47894,-0.04576 -0.4122,-0.0088 -1.07097,-0.01265 -1.48527,-0.0092 -0.41246,-4e-5 -1.07175,0.01355 -1.48287,0.02753 -0.41457,0.01213 -1.07253,0.03974 -1.48391,0.06245 -0.41139,0.02271 -1.06987,0.06778 -1.48151,0.09922 -0.40821,0.03329 -1.06535,0.09238 -1.47382,0.134405 -0.40846,0.04202 -1.06613,0.118574 -1.47141,0.171178 -0.40529,0.0526 -1.05818,0.145026 -1.46373,0.206361 -0.4021,0.06319 -1.05023,0.171479 -1.45259,0.243394 -0.40236,0.07192 -1.04572,0.196081 -1.44305,0.275137 -0.39919,0.0825 -1.03777,0.222533 -1.43192,0.31217 -0.39944,0.09123 -1.02797,0.245544 -1.42079,0.349203 -0.39097,0.100217 -1.01816,0.268556 -1.40595,0.379355 -0.38594,0.107353 -1.00492,0.293413 -1.38768,0.411352 -0.38462,0.12138 -0.99168,0.318281 -1.37126,0.446801 -0.37959,0.12852 -0.97844,0.343142 -1.35299,0.478802 -0.37111,0.137511 -0.96335,0.364564 -1.32943,0.509215 -0.36793,0.148091 -0.9501,0.389426 -1.31115,0.541217 -0.35946,0.157083 -0.93502,0.410848 -1.28759,0.571629 -0.35443,0.164223 -0.91463,0.430679 -1.26403,0.602043 -0.34411,0.169773 -0.89425,0.450509 -1.23517,0.630863 -0.33908,0.176913 -0.87731,0.468491 -1.21321,0.655985 -0.3306,0.185904 -0.85692,0.488323 -1.17906,0.683217 -0.32557,0.193044 -0.83839,0.511594 -1.15364,0.710189 -0.3171,0.202035 -0.81616,0.527984 -1.12294,0.73557 -0.30679,0.207585 -0.79393,0.544376 -1.09224,0.760951 -0.2999,0.211286 -0.7717,0.560767 -1.05784,0.779453 -0.29143,0.220276 -0.74602,0.579008 -1.02713,0.804835 -0.27767,0.227676 -0.7185,0.593808 -0.98929,0.825184 -0.27079,0.231376 -0.69627,0.6102 -0.95673,0.847127 -0.26047,0.236926 -0.6669,0.621559 -0.91705,0.864036 -0.24829,0.239037 -0.64281,0.634511 -0.88078,0.879098 -0.23983,0.248027 -0.61344,0.645871 -0.84639,0.897598 -0.22765,0.250138 -0.58406,0.657231 -0.8014,0.912919 -0.21733,0.255688 -0.55813,0.666741 -0.76514,0.927978 -0.20516,0.257799 -0.52692,0.674662 -0.7252,0.936159 -0.19483,0.263351 -0.49754,0.686022 -0.68365,0.949629 -0.18267,0.265456 -0.46631,0.693942 -0.64025,0.95966 -0.1705,0.267566 -0.43854,0.700009 -0.59686,0.969686 -0.16363,0.271266 -0.41075,0.706084 -0.56035,0.976019 -0.14616,0.271787 -0.37583,0.707118 -0.51166,0.98446 -0.13744,0.272042 -0.3462,0.709751 -0.47145,0.983907 -0.12181,0.276008 -0.31312,0.714231 -0.42276,0.992349 -0.11309,0.276268 -0.28349,0.716859 -0.38255,0.991796 -0.0991,0.274938 -0.25201,0.716049 -0.3389,0.993096 -0.085,0.273607 -0.21523,0.713647 -0.29339,0.990953 -0.0729,0.275718 -0.18375,0.712838 -0.24789,0.988814 -0.0588,0.274388 -0.15227,0.712025 -0.20054,0.983231 -0.0501,0.274647 -0.12078,0.711215 -0.16032,0.982681 -0.0342,0.269876 -0.0856,0.703524 -0.11112,0.973658 -0.0255,0.270134 -0.0523,0.699273 -0.0672,0.966226 -0.0115,0.268805 -0.0224,0.693172 -0.0233,0.958796 9.4e-4,0.262183 0.009,0.683629 0.0225,0.947923 0.0115,0.259003 0.0411,0.674088 0.0666,0.93176 0.0237,0.261113 0.071,0.667988 0.10712,0.922479 0.0361,0.254492 0.10803,0.656856 0.15473,0.908166 0.0486,0.247872 0.13634,0.645465 0.19891,0.892005 0.061,0.241248 0.16649,0.63063 0.23964,0.873992 0.0716,0.238068 0.19824,0.621089 0.28567,0.854388 0.0821,0.234888 0.22838,0.606258 0.32296,0.834526 0.098,0.230118 0.26197,0.593277 0.36713,0.818364 0.107,0.221648 0.29053,0.573154 0.40812,0.791621 0.11944,0.215026 0.32069,0.558322 0.45071,0.770167 0.12657,0.209996 0.3474,0.54164 0.48641,0.745015 0.14085,0.199935 0.37596,0.521518 0.5274,0.718272 0.15144,0.196754 0.40268,0.504835 0.56311,0.693118 0.16571,0.186695 0.43123,0.484713 0.60594,0.662935 0.16942,0.179816 0.45451,0.466181 0.63821,0.635932 0.18185,0.173193 0.47964,0.444208 0.67233,0.605487 0.19428,0.166572 0.51004,0.420646 0.70987,0.576894 0.20168,0.152807 0.53173,0.396826 0.7424,0.541161 0.21226,0.149629 0.55685,0.374854 0.77651,0.510716 0.21781,0.139308 0.57853,0.351033 0.80718,0.478422 0.22866,0.127391 0.60206,0.323765 0.83626,0.440851 0.23764,0.118936 0.62374,0.299942 0.86694,0.408547 0.24319,0.108606 0.64383,0.270827 0.89602,0.37096 0.25059,0.09484 0.66207,0.245153 0.9198,0.334968 0.25959,0.08638 0.68032,0.219485 0.94889,0.297385 0.26514,0.07605 0.70041,0.190372 0.9711,0.256101 0.27412,0.06758 0.71864,0.164698 0.99832,0.221957 0.27967,0.05726 0.73001,0.135325 1.01523,0.182264 0.28708,0.04349 0.7501,0.106212 1.04088,0.142829 0.28918,0.03133 0.76146,0.07684 1.05619,0.09785 0.29633,0.0263 0.77441,0.0528 1.0747,0.0634 0.30373,0.0125 0.78762,0.0199 1.09346,0.0203 0.30583,3.6e-4 0.79898,-0.009 1.11036,-0.0194 0.30795,-0.0118 0.8069,-0.0406 1.1204,-0.0628 0.3135,-0.0221 0.81826,-0.07003 1.13387,-0.104327 0.31905,-0.03245 0.82777,-0.09596 1.14549,-0.142428 0.31956,-0.04991 0.8341,-0.132471 1.15736,-0.189263 0.32327,-0.05679 0.83832,-0.156813 1.1637,-0.225775 0.32194,-0.07081 0.8428,-0.189887 1.17029,-0.271022 0.32404,-0.08298 0.84887,-0.217668 1.17502,-0.312824 0.32775,-0.08987 0.8515,-0.247301 1.17792,-0.351187 0.32827,-0.107327 0.85598,-0.280374 1.18451,-0.396432 0.32852,-0.116057 0.85331,-0.308416 1.18395,-0.436645 0.32535,-0.126639 0.85251,-0.339899 1.1834,-0.476859 0.32561,-0.13537 0.84985,-0.367942 1.17757,-0.515482 0.32956,-0.15098 0.85247,-0.397574 1.17886,-0.559136 0.32638,-0.161561 0.84981,-0.425617 1.17302,-0.597759 0.3232,-0.172143 0.84371,-0.45551 1.16718,-0.636383 0.32002,-0.182723 0.83761,-0.485401 1.15789,-0.676855 0.32029,-0.191454 0.8331,-0.510004 1.15206,-0.715479 0.3171,-0.202035 0.82515,-0.536456 1.13907,-0.749072 0.31577,-0.216056 0.81905,-0.566349 1.12979,-0.789545 0.31259,-0.226637 0.80766,-0.594651 1.11522,-0.828428 0.30756,-0.233778 0.79786,-0.617663 1.10224,-0.862021 0.30253,-0.240918 0.78805,-0.640674 1.08396,-0.894023 0.30121,-0.25494 0.77667,-0.668977 1.07284,-0.931056 0.29273,-0.26393 0.76157,-0.690398 1.05112,-0.96491 0.2877,-0.27107 0.74648,-0.711818 1.031,-0.99347 0.28452,-0.281651 0.73509,-0.740122 1.01272,-1.025473 0.27605,-0.290642 0.72,-0.761543 0.99102,-1.059326 0.27102,-0.29778 0.70305,-0.779524 0.9656,-1.086298 0.26598,-0.304925 0.68452,-0.802796 0.94548,-1.114859 0.25752,-0.313912 0.66758,-0.820778 0.92006,-1.141831 0.24905,-0.322903 0.6472,-0.840609 0.89121,-1.170653 0.24561,-0.324755 0.63026,-0.858591 0.86739,-1.192335 0.23714,-0.333746 0.60803,-0.874982 0.84013,-1.215867 0.22681,-0.339296 0.58579,-0.891372 0.80757,-1.237807 0.22178,-0.346435 0.56885,-0.909354 0.78031,-1.261341 0.21146,-0.351986 0.5482,-0.920455 0.7512,-1.281428 0.20458,-0.355685 0.71838,-1.294641 0.71838,-1.294641"
     id="path3-4" />
  <rect
     style="fill:#ffffff;stroke-width:0.422705"
     id="rect4-3-7"
     width="7.1846766"
     height="3.4719338"
     x="266.23785"
     y="86.16391" />
  <rect
     style="fill:#ffffff;stroke-width:0.5745"
     id="rect4-6-7-6"
     width="8.0091467"
     height="5.7530479"
     x="327.78326"
     y="42.210697" />
  <rect
     style="fill:#ffffff;stroke-width:0.5745"
     id="rect4-6-7-5-5"
     width="8.0091467"
     height="5.7530479"
     x="307.40897"
     y="81.573235" />
  <rect
     style="fill:#ffffff;stroke-width:0.5745"
     id="rect4-6-7-5-3-6"
     width="8.0091467"
     height="5.7530479"
     x="284.25113"
     y="43.739689" />
  <path
     style="fill:none;fill-rule:evenodd;stroke:#000000;stroke-width:0.398;stroke-linecap:butt;stroke-linejoin:miter;stroke-dasharray:none;stroke-opacity:1"
     d="m 287.4311,43.661928 1.0513,5.945389"
     id="path11-9"
     inkscape:connector-type="polyline"
     inkscape:connector-curvature="0"
     sodipodi:nodetypes="cccc" />
  <path
     style="fill:#ffffff;stroke-width:0.5745"
     d="m 73.463636,103.6946 c 3.48307,-1.19648 6.966146,-2.39295 9.478764,-2.18023 2.512618,0.21273 4.054709,1.83458 4.812461,2.64553 0.757751,0.81094 0.731201,0.81094 0.704611,0.81094"
     id="path5-3"
     inkscape:path-effect="#path-effect5-1"
     inkscape:original-d="m 73.463636,103.6946 c 3.483072,-1.19647 6.966147,-2.39295 10.449221,-3.58943 1.542158,1.62193 3.084255,3.24378 4.626375,4.86567 -0.02662,0 -0.05317,0 -0.07976,0"
     transform="translate(173.98351,2.0421674)" />
  <path
     style="fill:#ffffff;stroke-width:0.5745"
     d="m 218.17336,51.336986 -5.58356,0.31906"
     id="path7-7" />
  <rect
     style="fill:#ffffff;stroke-width:0.5745"
     id="rect4-4"
     width="8.0091467"
     height="5.7530479"
     x="266.59631"
     y="56.526913" />
  <path
     style="fill:none;fill-rule:evenodd;stroke:#000000;stroke-width:0.401276;stroke-linecap:butt;stroke-linejoin:miter;stroke-dasharray:none;stroke-opacity:1"
     d="m 327.7091,43.395826 8.31971,3.117756"
     id="path10-5"
     inkscape:connector-type="polyline"
     inkscape:connector-curvature="0"
     sodipodi:nodetypes="cccccc" />
  <path
     style="fill:none;fill-rule:evenodd;stroke:#000000;stroke-width:0.398;stroke-linecap:butt;stroke-linejoin:miter;stroke-dasharray:none;stroke-opacity:1"
     d="m 307.25926,86.543015 6.58407,-5.303818"
     id="path12-2"
     inkscape:connector-type="polyline"
     inkscape:connector-curvature="0"
     sodipodi:nodetypes="ccc" />
  <path
     style="fill:none;fill-rule:evenodd;stroke:#000000;stroke-width:0.398;stroke-linecap:butt;stroke-linejoin:miter;stroke-dasharray:none;stroke-opacity:1"
     d="m 266.6717,89.842294 3.95244,-3.775997"
     id="path12-6-5"
     inkscape:connector-type="polyline"
     inkscape:connector-curvature="0"
     sodipodi:nodetypes="ccc" />
  <path
     style="fill:none;fill-rule:evenodd;stroke:#000000;stroke-width:0.398;stroke-linecap:butt;stroke-linejoin:miter;stroke-dasharray:none;stroke-opacity:1"
     d="m 268.08774,62.649711 5.05616,-6.546337"
     id="path10-2-4"
     inkscape:connector-type="polyline"
     inkscape:connector-curvature="0"
     sodipodi:nodetypes="cccc"
     inkscape:transform-center-x="-0.59261894"
     inkscape:transform-center-y="-0.60082512" />
  <text
     xml:space="preserve"
     style="font-size:13.291px;text-align:start;writing-mode:lr-tb;direction:ltr;text-anchor:start;fill:#2b1100;stroke-width:0.240446;stroke-dasharray:none"
     x="246.0959"
     y="35.773258"
     id="text14-7"
     transform="scale(1.0202011,0.9801989)"><tspan
       sodipodi:role="line"
       id="tspan14-4"
       style="stroke-width:0.240446"
       x="246.0959"
       y="35.773258">L</tspan></text>
  <text
     xml:space="preserve"
     style="font-size:11.6988px;text-align:start;writing-mode:lr-tb;direction:ltr;text-anchor:start;fill:#2b1100;stroke-width:0.211642;stroke-dasharray:none"
     x="218.25711"
     y="62.647732"
     id="text14-6-4"
     transform="scale(1.0176433,0.98266258)"><tspan
       sodipodi:role="line"
       id="tspan14-3-3"
       style="stroke-width:0.211642"
       x="218.25711"
       y="62.647732">K</tspan></text>
  <text
     xml:space="preserve"
     style="font-size:11.6988px;text-align:start;writing-mode:lr-tb;direction:ltr;text-anchor:start;fill:#2b1100;stroke-width:0.211642;stroke-dasharray:none"
     x="344.39352"
     y="45.179836"
     id="text14-6-2-0"
     transform="scale(1.0176433,0.98266258)"><tspan
       sodipodi:role="line"
       id="tspan14-3-0-7"
       style="stroke-width:0.211642"
       x="344.39352"
       y="45.179836">K</tspan></text>
  <text
     xml:space="preserve"
     style="font-size:5.70722px;text-align:start;writing-mode:lr-tb;direction:ltr;text-anchor:start;fill:#2b1100;stroke-width:0.103249;stroke-dasharray:none"
     x="225.02008"
     y="64.65789"
     id="text15-8"
     transform="scale(1.0214234,0.97902594)"><tspan
       sodipodi:role="line"
       id="tspan15-6"
       style="stroke-width:0.103249"
       x="225.02008"
       y="64.65789">1</tspan><tspan
       sodipodi:role="line"
       style="stroke-width:0.103249"
       x="225.02008"
       y="71.791916"
       id="tspan16-8" /></text>
  <text
     xml:space="preserve"
     style="font-size:5.23372px;text-align:start;writing-mode:lr-tb;direction:ltr;text-anchor:start;fill:#2b1100;stroke-width:0.0946828;stroke-dasharray:none"
     x="343.50034"
     y="48.706295"
     id="text17-8"
     transform="scale(1.0427245,0.95902609)"><tspan
       sodipodi:role="line"
       id="tspan17-4"
       style="stroke-width:0.0946828"
       x="343.50034"
       y="48.706295">2</tspan></text>
  <path
     style="display:inline;fill:none;fill-rule:evenodd;stroke:#000000;stroke-width:0.75px;stroke-linecap:butt;stroke-linejoin:miter;stroke-opacity:1"
     d="m 197.6341,113.70729 v 0"
     id="path17"
     inkscape:connector-type="polyline"
     inkscape:connector-curvature="0" />
</svg>
