<?xml version="1.0" encoding="UTF-8" standalone="no"?>
<svg
   viewBox="0 0 152.244 152.244"
   height="152.244"
   style="background-color: white;"
   width="152.244"
   xml:space="preserve"
   id="svg2"
   version="1.1"
   sodipodi:docname="trivial_tangle.svg"
   inkscape:version="1.3.2 (091e20e, 2023-11-25)"
   xmlns:inkscape="http://www.inkscape.org/namespaces/inkscape"
   xmlns:sodipodi="http://sodipodi.sourceforge.net/DTD/sodipodi-0.dtd"
   xmlns="http://www.w3.org/2000/svg"
   xmlns:svg="http://www.w3.org/2000/svg"
   xmlns:rdf="http://www.w3.org/1999/02/22-rdf-syntax-ns#"
   xmlns:cc="http://creativecommons.org/ns#"
   xmlns:dc="http://purl.org/dc/elements/1.1/"><sodipodi:namedview
     id="namedview1"
     pagecolor="#ffffff"
     bordercolor="#000000"
     borderopacity="0.25"
     inkscape:showpageshadow="2"
     inkscape:pageopacity="0.0"
     inkscape:pagecheckerboard="0"
     inkscape:deskcolor="#d1d1d1"
     inkscape:zoom="4.7358187"
     inkscape:cx="76.122002"
     inkscape:cy="76.016423"
     inkscape:window-width="1392"
     inkscape:window-height="943"
     inkscape:window-x="234"
     inkscape:window-y="25"
     inkscape:window-maximized="0"
     inkscape:current-layer="svg2" /><metadata
     id="metadata8"><rdf:RDF><cc:Work
         rdf:about=""><dc:format>image/svg+xml</dc:format><dc:type
           rdf:resource="http://purl.org/dc/dcmitype/StillImage" /></cc:Work></rdf:RDF></metadata><defs
     id="defs6" /><g
     transform="matrix(1.1518686,0,0,-1.2207722,10.360004,145.07873)"
     id="g10"><g
       transform="translate(57.091,57.091)"
       id="g12"><g
         id="g14"><g
           id="g16"><g
             id="g18"><path
               id="path20"
               style="fill:none;stroke:#000000;stroke-width:0.79701;stroke-linecap:butt;stroke-linejoin:miter;stroke-miterlimit:10;stroke-dasharray:none;stroke-opacity:1"
               d="M 56.69363,0 C 56.69363,31.31142 31.31142,56.69363 0,56.69363 -31.31142,56.69363 -56.69363,31.31142 -56.69363,0 c 0,-31.31142 25.38221,-56.69363 56.69363,-56.69363 31.31142,0 56.69363,25.38221 56.69363,56.69363 z" /></g><path
             id="path22"
             style="fill:#000000;fill-opacity:1;fill-rule:nonzero;stroke:#000000;stroke-width:0.3985;stroke-linecap:butt;stroke-linejoin:miter;stroke-miterlimit:10;stroke-dasharray:none;stroke-opacity:1"
             d="m 1.99255,42.5202 c 0,1.10047 -0.89209,1.99256 -1.99255,1.99256 -1.10046,0 -1.99255,-0.89209 -1.99255,-1.99256 0,-1.10048 0.89209,-1.99255 1.99255,-1.99255 1.10046,0 1.99255,0.89207 1.99255,1.99255 z" /><g
             id="g24"><g
               transform="translate(3.52,39.116)"
               id="g26"><g
                 id="g28"><g
                   transform="translate(-60.611,-96.207)"
                   id="g30"><text
   id="text34"
   style="font-variant:normal;font-weight:normal;font-size:9.9626px;font-family:CMMI10;-inkscape-font-specification:CMMI10;writing-mode:lr-tb;fill:#000000;fill-opacity:1;fill-rule:nonzero;stroke:none"
   transform="matrix(1,0,0,-1,60.611,96.207)"><tspan
     id="tspan32"
     y="0"
     x="0">A</tspan></text>
<g
   transform="translate(60.611,96.207)"
   id="g36" /></g></g><g
                 transform="translate(-3.52,-39.116)"
                 id="g38" /></g></g><path
             id="path40"
             style="fill:#000000;fill-opacity:1;fill-rule:nonzero;stroke:#000000;stroke-width:0.3985;stroke-linecap:butt;stroke-linejoin:miter;stroke-miterlimit:10;stroke-dasharray:none;stroke-opacity:1"
             d="m 1.99255,-42.5202 c 0,1.10048 -0.89209,1.99255 -1.99255,1.99255 -1.10046,0 -1.99255,-0.89207 -1.99255,-1.99255 0,-1.10047 0.89209,-1.99256 1.99255,-1.99256 1.10046,0 1.99255,0.89209 1.99255,1.99256 z" /><g
             id="g42"><g
               transform="translate(3.52,-45.923)"
               id="g44"><g
                 id="g46"><g
                   transform="translate(-60.611,-11.168)"
                   id="g48"><text
   id="text52"
   style="font-variant:normal;font-weight:normal;font-size:9.9626px;font-family:CMMI10;-inkscape-font-specification:CMMI10;writing-mode:lr-tb;fill:#000000;fill-opacity:1;fill-rule:nonzero;stroke:none"
   transform="matrix(1,0,0,-1,60.611,11.168)"><tspan
     id="tspan50"
     y="0"
     x="0">B</tspan></text>
<g
   transform="translate(60.611,11.168)"
   id="g54" /></g></g><g
                 transform="translate(-3.52,45.923)"
                 id="g56" /></g></g><g
             id="g58"><path
               id="path60"
               style="fill:none;stroke:#000000;stroke-width:0.79701;stroke-linecap:butt;stroke-linejoin:miter;stroke-miterlimit:10;stroke-dasharray:none;stroke-opacity:1"
               d="M 0,42.5202 V -42.5202" /><g
               id="g62"><g
                 transform="translate(-9.43,-1.176)"
                 id="g64"><g
                   id="g66"><g
                     transform="translate(-47.661,-55.915)"
                     id="g68"><text
   id="text72"
   style="font-variant:normal;font-weight:normal;font-size:9.9626px;font-family:CMMI10;-inkscape-font-specification:CMMI10;writing-mode:lr-tb;fill:#000000;fill-opacity:1;fill-rule:nonzero;stroke:none"
   transform="matrix(1,0,0,-1,47.661,55.915)">γ<tspan
   id="tspan70"
   y="0"
   x="0" /></text>
<g
   transform="translate(47.661,55.915)"
   id="g74" /></g></g><g
                   transform="translate(9.43,1.176)"
                   id="g76" /></g></g></g></g></g></g></g></svg>
