<?xml version="1.0" encoding="UTF-8" standalone="no"?>
<svg
   viewBox="0 0 303.42532 76.653336"
   height="76.653336"
   style="background-color: white;"
   width="303.42532"
   xml:space="preserve"
   id="svg2"
   version="1.1"
   sodipodi:docname="trivial_n_component_link.svg"
   inkscape:version="1.3.2 (091e20e, 2023-11-25)"
   xmlns:inkscape="http://www.inkscape.org/namespaces/inkscape"
   xmlns:sodipodi="http://sodipodi.sourceforge.net/DTD/sodipodi-0.dtd"
   xmlns="http://www.w3.org/2000/svg"
   xmlns:svg="http://www.w3.org/2000/svg"
   xmlns:rdf="http://www.w3.org/1999/02/22-rdf-syntax-ns#"
   xmlns:cc="http://creativecommons.org/ns#"
   xmlns:dc="http://purl.org/dc/elements/1.1/"><sodipodi:namedview
     id="namedview1"
     pagecolor="#ffffff"
     bordercolor="#000000"
     borderopacity="0.25"
     inkscape:showpageshadow="2"
     inkscape:pageopacity="0.0"
     inkscape:pagecheckerboard="0"
     inkscape:deskcolor="#d1d1d1"
     inkscape:zoom="2.3762025"
     inkscape:cx="151.71266"
     inkscape:cy="38.2964"
     inkscape:window-width="1392"
     inkscape:window-height="943"
     inkscape:window-x="234"
     inkscape:window-y="25"
     inkscape:window-maximized="0"
     inkscape:current-layer="svg2" /><metadata
     id="metadata8"><rdf:RDF><cc:Work
         rdf:about=""><dc:format>image/svg+xml</dc:format><dc:type
           rdf:resource="http://purl.org/dc/dcmitype/StillImage" /></cc:Work></rdf:RDF></metadata><defs
     id="defs6" /><g
     transform="matrix(1.1633426,0,0,-1.0839075,15.134065,70.325268)"
     id="g10"><g
       transform="translate(28.745,28.745)"
       id="g12"><g
         id="g14"><g
           id="g16"><g
             id="g18"><path
               id="path20"
               style="fill:none;stroke:#000000;stroke-width:0.79701;stroke-linecap:butt;stroke-linejoin:miter;stroke-miterlimit:10;stroke-dasharray:none;stroke-opacity:1"
               d="M 28.3468,0 C 28.3468,15.6557 15.6557,28.3468 0,28.3468 -15.6557,28.3468 -28.3468,15.6557 -28.3468,0 c 0,-15.6557 12.6911,-28.3468 28.3468,-28.3468 15.6557,0 28.3468,12.6911 28.3468,28.3468 z" /></g><g
             id="g22"><path
               id="path24"
               style="fill:none;stroke:#000000;stroke-width:0.79701;stroke-linecap:butt;stroke-linejoin:miter;stroke-miterlimit:10;stroke-dasharray:none;stroke-opacity:1"
               d="m 113.38724,0 c 0,15.6557 -12.6911,28.3468 -28.34682,28.3468 -15.65572,0 -28.3468,-12.6911 -28.3468,-28.3468 0,-15.6557 12.69108,-28.3468 28.3468,-28.3468 15.65572,0 28.34682,12.6911 28.34682,28.3468 z" /></g><g
             id="g26"><path
               id="path28"
               style="fill:none;stroke:#000000;stroke-width:0.79701;stroke-linecap:butt;stroke-linejoin:miter;stroke-miterlimit:10;stroke-dasharray:none;stroke-opacity:1"
               d="m 198.42766,0 c 0,15.6557 -12.6911,28.3468 -28.3468,28.3468 -15.65572,0 -28.34682,-12.6911 -28.34682,-28.3468 0,-15.6557 12.6911,-28.3468 28.34682,-28.3468 15.6557,0 28.3468,12.6911 28.3468,28.3468 z" /></g><g
             id="g30"><g
               transform="translate(121.747,-2.214)"
               id="g32"><g
                 id="g34"><g
                   transform="translate(-150.492,-26.531)"
                   id="g36"><text
   id="text40"
   style="font-variant:normal;font-weight:normal;font-size:9.9626px;font-family:CMSY10;-inkscape-font-specification:CMSY10;writing-mode:lr-tb;fill:#000000;fill-opacity:1;fill-rule:nonzero;stroke:none"
   transform="matrix(1,0,0,-1,150.492,26.531)"><tspan
     id="tspan38"
     y="0"
     x="0 4.4313645 8.852766">···</tspan></text>
<g
   transform="translate(150.492,26.531)"
   id="g42" /></g></g><g
                 transform="translate(-121.747,2.214)"
                 id="g44" /></g></g></g></g></g></g></svg>
