<?xml version="1.0" standalone="no"?>
<!DOCTYPE svg PUBLIC "-//W3C//DTD SVG 20010904//EN"
 "http://www.w3.org/TR/2001/REC-SVG-20010904/DTD/svg10.dtd">
<svg version="1.0" xmlns="http://www.w3.org/2000/svg"
 width="300.000000pt" height="266.000000pt" viewBox="0 0 300.000000 266.000000"
 preserveAspectRatio="xMidYMid meet">
<metadata>
Created by potrace 1.10, written by Peter Selinger 2001-2011
</metadata>
<!-- Add a white background -->
<rect width="300.000000" height="266.000000" fill="white"/>
<g transform="translate(0.000000,266.000000) scale(0.100000,-0.100000)"
fill="#000000" stroke="none">
<path d="M1257 2382 l-278 -2 -77 -58 c-42 -31 -81 -61 -87 -65 -14 -11 -330
-244 -395 -292 -30 -22 -63 -43 -72 -47 -17 -7 -18 -38 -18 -440 -1 -839 1
-1302 4 -1305 2 -2 361 -4 799 -3 l796 0 78 58 c43 32 89 65 103 75 14 9 84
61 155 117 72 55 169 128 217 162 l88 63 2 515 c1 283 1 569 0 635 0 66 -1
226 -1 355 l-1 235 -517 0 c-285 0 -643 -1 -796 -3z m1200 -67 c-14 -11 -60
-45 -102 -75 -43 -30 -85 -62 -94 -71 -9 -9 -43 -35 -76 -58 -97 -67 -154
-108 -207 -151 l-51 -40 -156 -2 c-86 -1 -292 -2 -458 -2 l-302 -1 -3 35 c-2
27 -7 35 -23 35 -16 0 -21 -8 -23 -35 l-3 -35 -264 0 c-146 0 -264 3 -262 7 1
4 30 27 65 50 95 65 436 320 444 332 5 7 12 4 22 -9 12 -16 16 -17 30 -6 9 7
16 21 16 31 0 17 36 18 736 17 l735 -2 -24 -20z m68 -1002 l-7 -651 -71 -54
c-39 -29 -81 -60 -93 -68 -30 -20 -375 -280 -396 -298 -16 -14 -17 32 -18 808
l0 823 23 21 c13 11 72 56 132 100 60 43 113 83 119 88 6 5 56 42 111 83 99
73 139 104 179 137 l21 16 3 -176 c2 -98 0 -470 -3 -829z m-1071 557 l441 0 4
-595 c2 -436 0 -595 -8 -595 -11 0 -16 -32 -6 -42 3 -3 6 -99 8 -214 l2 -209
-739 -3 c-683 -2 -739 -1 -751 14 -6 9 -16 14 -22 11 -6 -4 -10 283 -10 811
l-1 817 277 6 c152 3 296 4 320 2 24 -2 242 -3 485 -3z"/>
<path d="M960 2201 c0 -37 2 -41 26 -41 23 0 25 3 22 38 -2 30 -7 38 -25 40
-21 3 -23 -1 -23 -37z"/>
<path d="M1643 2178 c-35 -38 -34 -93 2 -110 21 -9 24 -18 27 -67 3 -48 6 -56
23 -56 18 0 20 6 17 50 -2 42 2 53 23 73 33 30 33 75 0 107 -30 31 -65 32 -92
3z m65 -52 c2 -10 -1 -23 -8 -30 -17 -17 -44 22 -28 41 14 17 32 12 36 -11z"/>
<path d="M1167 2172 c-23 -26 -22 -78 3 -99 16 -14 20 -30 20 -75 0 -58 4 -64
34 -52 12 4 16 20 16 53 0 38 5 52 25 69 29 25 33 66 9 100 -20 28 -83 31
-107 4z m71 -50 c4 -26 -26 -42 -38 -21 -11 16 7 52 23 46 7 -2 13 -13 15 -25z"/>
<path d="M967 2104 c-4 -4 -7 -22 -7 -41 0 -29 3 -33 26 -33 23 0 25 3 22 37
-3 36 -23 54 -41 37z"/>
<path d="M2393 673 c-10 -27 5 -44 34 -37 38 9 43 13 43 30 0 15 -1 16 -44 18
-15 1 -30 -4 -33 -11z"/>
<path d="M2002 663 c2 -13 14 -19 41 -21 32 -3 37 0 37 17 0 18 -6 21 -41 21
-33 0 -40 -3 -37 -17z"/>
<path d="M2130 660 c0 -17 7 -20 40 -20 33 0 40 3 40 20 0 17 -7 20 -40 20
-33 0 -40 -3 -40 -20z"/>
<path d="M2260 660 c0 -17 7 -20 40 -20 33 0 40 3 40 20 0 17 -7 20 -40 20
-33 0 -40 -3 -40 -20z"/>
<path d="M971 1851 c-7 -5 -11 -23 -9 -42 2 -26 8 -34 23 -34 16 0 21 8 23 36
3 38 -13 55 -37 40z"/>
<path d="M1211 1831 c-11 -7 -10 -18 4 -67 36 -126 119 -225 239 -286 82 -41
163 -103 187 -141 41 -68 12 -146 -77 -207 -36 -26 -43 -34 -33 -46 19 -23 33
-17 97 46 97 97 105 162 31 250 -43 51 -88 84 -194 140 -115 62 -160 117 -199
239 -25 78 -31 87 -55 72z"/>
<path d="M1653 1791 c-16 -69 -62 -158 -95 -186 -30 -26 -36 -50 -14 -58 35
-14 156 180 156 249 0 26 -13 44 -33 44 -1 0 -8 -22 -14 -49z"/>
<path d="M964 1716 c-11 -28 0 -61 21 -61 16 0 20 7 20 35 0 25 -5 36 -18 38
-9 2 -20 -3 -23 -12z"/>
<path d="M962 1563 c2 -31 7 -39 26 -41 20 -3 22 1 22 37 0 37 -2 41 -26 41
-23 0 -25 -3 -22 -37z"/>
<path d="M967 1474 c-10 -11 -9 -72 2 -78 23 -14 42 7 39 43 -3 34 -24 52 -41
35z"/>
<path d="M1268 1398 l-70 -72 4 -58 c3 -46 11 -66 35 -95 38 -48 110 -103 182
-140 98 -49 157 -91 200 -139 34 -39 41 -54 41 -89 0 -35 -7 -50 -39 -86 -36
-41 -41 -43 -85 -40 -45 2 -47 1 -44 -21 2 -13 9 -22 16 -20 7 1 15 -5 18 -13
9 -22 38 -18 64 9 20 22 24 23 37 10 18 -17 45 -18 61 -2 20 20 14 38 -13 38
-31 0 -31 9 0 38 33 32 42 98 20 145 -24 51 -109 131 -174 163 -157 79 -239
140 -268 201 -13 28 -14 41 -4 72 10 36 71 103 116 128 16 9 17 13 6 27 -7 9
-18 16 -24 16 -5 0 -41 -32 -79 -72z"/>
<path d="M960 1311 c0 -43 9 -55 34 -45 11 4 16 19 16 45 0 35 -3 39 -25 39
-22 0 -25 -4 -25 -39z"/>
<path d="M960 1179 c0 -36 2 -40 23 -37 18 2 23 10 25 41 3 34 1 37 -22 37
-24 0 -26 -4 -26 -41z"/>
<path d="M971 1091 c-7 -5 -11 -23 -9 -42 2 -26 8 -34 23 -34 16 0 21 8 23 36
3 38 -13 55 -37 40z"/>
<path d="M1265 935 c-64 -64 -65 -66 -65 -118 0 -42 6 -63 26 -92 18 -27 22
-40 14 -45 -7 -4 -10 -16 -8 -26 3 -15 11 -18 36 -16 21 2 43 -4 64 -19 18
-13 46 -30 62 -39 17 -8 75 -40 129 -70 95 -53 97 -54 97 -90 0 -68 81 -101
122 -51 43 54 8 124 -61 120 -25 -2 -48 4 -68 19 -17 12 -41 26 -54 32 -36 15
-153 80 -163 91 -6 5 0 9 17 9 20 0 27 5 27 20 0 17 -7 20 -41 20 -22 0 -38
-4 -34 -9 3 -5 1 -12 -3 -15 -11 -6 -82 59 -106 98 -30 48 -15 105 43 158 26
23 56 48 66 54 11 6 15 15 11 22 -15 25 -49 10 -111 -53z m443 -519 c-4 -26
-27 -28 -42 -3 -8 13 -8 20 3 26 21 14 42 1 39 -23z"/>
<path d="M964 956 c-10 -26 0 -71 16 -71 10 0 16 13 18 43 2 33 0 42 -13 42
-8 0 -18 -6 -21 -14z"/>
<path d="M967 843 c-4 -3 -7 -24 -7 -45 0 -35 2 -39 23 -36 17 2 22 10 23 33
1 41 -20 67 -39 48z"/>
<path d="M960 677 l0 -44 46 -1 c43 0 45 1 42 26 -2 22 -8 26 -25 24 -18 -3
-23 2 -23 17 0 14 -6 21 -20 21 -17 0 -20 -7 -20 -43z"/>
<path d="M1104 676 c-12 -30 4 -47 38 -44 28 2 33 7 33 28 0 21 -5 26 -33 28
-22 2 -34 -2 -38 -12z"/>
<path d="M1746 671 c-14 -23 7 -42 43 -39 29 2 37 8 39 26 3 20 -1 22 -37 22
-22 0 -42 -4 -45 -9z"/>
<path d="M876 607 c-20 -16 -27 -29 -23 -40 8 -22 16 -21 50 7 19 15 26 28 21
39 -8 22 -13 21 -48 -6z"/>
<path d="M772 528 c-36 -23 -39 -33 -15 -47 13 -7 25 -4 45 11 53 37 24 71
-30 36z"/>
<path d="M1314 522 c-26 -17 -54 -27 -83 -28 -53 -2 -84 -29 -84 -75 0 -62 78
-92 121 -46 11 12 22 37 24 56 2 28 10 37 45 55 44 22 52 36 30 54 -10 9 -23
5 -53 -16z m-70 -81 c10 -16 -5 -41 -24 -41 -25 0 -35 18 -20 35 14 17 36 20
44 6z"/>
<path d="M661 445 c-22 -22 -22 -45 1 -45 5 0 23 9 39 21 24 17 27 24 18 35
-16 19 -30 17 -58 -11z"/>
<path d="M567 376 c-19 -15 -26 -28 -21 -39 8 -22 19 -21 54 5 23 17 27 25 19
40 -12 23 -18 22 -52 -6z"/>
<path d="M462 298 c-31 -19 -32 -22 -17 -37 14 -14 18 -14 43 -1 26 15 37 50
17 56 -5 2 -25 -6 -43 -18z"/>
</g>
</svg>
