<?xml version="1.0" encoding="UTF-8" standalone="no"?>
<svg
   version="1.0"
   width="300.000000pt"
   height="348.000000pt"
   viewBox="0 0 300.000000 348.000000"
   preserveAspectRatio="xMidYMid meet"
   id="svg2"
   sodipodi:docname="closed_braid.svg"
   inkscape:version="1.4 (1:1.4+202410161351+e7c3feb100)"
   xmlns:inkscape="http://www.inkscape.org/namespaces/inkscape"
   xmlns:sodipodi="http://sodipodi.sourceforge.net/DTD/sodipodi-0.dtd"
   xmlns="http://www.w3.org/2000/svg"
   xmlns:svg="http://www.w3.org/2000/svg">
  <defs
     id="defs2" />
  <sodipodi:namedview
     id="namedview2"
     pagecolor="#ffffff"
     bordercolor="#000000"
     borderopacity="0.25"
     inkscape:showpageshadow="2"
     inkscape:pageopacity="0.0"
     inkscape:pagecheckerboard="0"
     inkscape:deskcolor="#d1d1d1"
     inkscape:document-units="pt"
     inkscape:zoom="1.7478448"
     inkscape:cx="200.24661"
     inkscape:cy="232"
     inkscape:window-width="1920"
     inkscape:window-height="1016"
     inkscape:window-x="0"
     inkscape:window-y="0"
     inkscape:window-maximized="1"
     inkscape:current-layer="svg2" />
  <metadata
     id="metadata1">
Created by potrace 1.10, written by Peter Selinger 2001-2011
</metadata>
  <rect
     style="fill:#ffffff;stroke-width:0.912997"
     id="rect2"
     width="290.50061"
     height="339.418"
     x="3.8618989"
     y="5.1491985" />
  <g
     transform="translate(0.000000,348.000000) scale(0.100000,-0.100000)"
     fill="#000000"
     stroke="none"
     id="g2">
    <path
       d="M1389 3306 c-291 -51 -504 -203 -605 -432 -30 -68 -64 -217 -64 -281 0 -27 -4 -53 -8 -60 -5 -8 -49 -13 -137 -15 l-130 -3 -3 -708 -2 -708 132 2 133 1 12 -103 c24 -215 86 -352 215 -475 119 -114 229 -169 427 -210 143 -31 334 -32 481 -4 189 37 285 85 400 200 69 69 94 101 127 170 42 86 72 183 94 300 30 162 34 267 34 860 0 602 -3 682 -35 833 -64 299 -174 457 -389 562 -123 60 -214 77 -421 81 -123 2 -211 -1 -261 -10z m501 -41 c41 -9 117 -37 169 -62 214 -102 336 -297 380 -608 20 -141 22 -213 23 -751 0 -632 -8 -768 -59 -974 -31 -124 -125 -295 -195 -355 -87 -74 -198 -132 -308 -159 -155 -38 -411 -39 -576 -1 -180 41 -321 123 -418 243 -101 126 -144 245 -161 442 l-6 65 121 0 120 0 0 -40 c1 -126 63 -279 150 -366 115 -116 281 -179 469 -179 267 1 451 131 543 384 32 88 67 241 73 321 2 28 7 85 10 127 9 126 6 878 -5 1000 -37 421 -175 645 -445 723 -77 23 -255 23 -348 1 -253 -60 -412 -240 -443 -498 l-6 -58 -117 0 -117 0 7 78 c32 378 281 627 679 682 96 13 372 4 460 -15z m-131 -222 c202 -52 326 -193 386 -440 47 -191 50 -241 50 -728 0 -450 -5 -581 -25 -718 -46 -311 -160 -492 -357 -570 -114 -45 -330 -40 -463 9 -122 47 -228 136 -277 235 -29 58 -55 161 -57 222 l-1 48 118 2 117 2 0 -30 c0 -88 72 -212 152 -264 91 -60 227 -76 305 -36 71 36 158 159 185 265 64 240 71 345 65 865 -4 339 -9 448 -22 515 -45 236 -119 372 -234 426 -49 23 -153 20 -227 -7 -86 -31 -176 -125 -203 -213 -11 -35 -17 -73 -14 -85 5 -21 3 -21 -122 -21 -102 0 -126 3 -122 13 3 8 8 40 13 73 25 206 144 349 349 418 106 36 281 45 384 19z m-71 -229 c135 -56 212 -264 231 -624 14 -263 6 -780 -13 -920 -30 -208 -80 -345 -154 -419 -61 -60 -117 -75 -212 -57 -36 7 -80 20 -97 29 -80 42 -148 146 -155 235 l-3 44 133 -2 132 -1 0 711 0 710 -135 0 -134 0 6 33 c17 89 62 170 118 213 76 57 207 80 283 48z m-967 -389 c12 -111 55 -176 164 -244 64 -40 95 -80 95 -121 0 -11 -19 -38 -42 -60 -33 -32 -39 -43 -29 -53 10 -9 22 -2 57 36 75 83 56 145 -69 228 -34 23 -69 50 -79 59 -31 33 -60 104 -65 162 l-6 58 118 0 118 0 -6 -52 c-4 -29 -21 -81 -38 -116 -17 -35 -29 -65 -26 -68 25 -25 89 93 95 178 l4 58 121 0 120 0 -6 -237 c-4 -131 -8 -251 -11 -268 -11 -74 -30 -152 -43 -177 -17 -34 -17 -58 0 -58 50 0 102 334 95 608 l-3 132 118 0 117 0 0 -677 0 -678 -120 0 -120 0 0 27 c0 111 -49 195 -156 269 -90 62 -122 105 -103 141 6 13 25 37 42 55 26 28 28 33 13 39 -20 8 -56 -23 -82 -71 -15 -29 -16 -39 -5 -75 10 -33 23 -49 74 -83 34 -23 82 -63 108 -88 47 -46 56 -69 74 -181 l6 -38 -121 0 c-136 0 -129 -6 -106 90 15 57 41 115 57 125 16 10 10 25 -10 25 -28 0 -80 -110 -88 -183 l-6 -57 -118 0 -119 0 0 113 c1 265 27 501 66 583 15 30 15 37 3 45 -48 29 -100 -270 -103 -591 l-1 -145 -117 0 -118 0 0 678 0 678 123 -3 122 -3 6 -60z"
       id="path1" />
    <path
       d="M751 2153 c-80 -97 -42 -153 243 -360 264 -190 296 -238 214 -315 -23 -22 -28 -32 -20 -40 15 -15 69 33 88 80 12 27 12 37 0 65 -23 54 -65 90 -366 311 -30 22 -79 63 -107 91 -65 63 -71 104 -23 150 17 16 30 35 30 42 0 25 -28 13 -59 -24z"
       id="path2" />
  </g>
</svg>
