<?xml version="1.0" encoding="UTF-8" standalone="no"?>
<svg
   version="1.0"
   width="1514pt"
   height="400pt"
   viewBox="0 0 1514 400"
   preserveAspectRatio="xMidYMid"
   id="svg5"
   sodipodi:docname="Regular_Diagram_Of_Figure.svg"
   inkscape:version="1.3.2 (091e20e, 2023-11-25)"
   xmlns:inkscape="http://www.inkscape.org/namespaces/inkscape"
   xmlns:sodipodi="http://sodipodi.sourceforge.net/DTD/sodipodi-0.dtd"
   xmlns="http://www.w3.org/2000/svg"
   xmlns:svg="http://www.w3.org/2000/svg">
  <defs
     id="defs5" />
  <sodipodi:namedview
     id="namedview5"
     pagecolor="#ffffff"
     bordercolor="#000000"
     borderopacity="0.25"
     inkscape:showpageshadow="2"
     inkscape:pageopacity="0.0"
     inkscape:pagecheckerboard="0"
     inkscape:deskcolor="#d1d1d1"
     inkscape:document-units="pt"
     inkscape:zoom="0.42850066"
     inkscape:cx="1009.3333"
     inkscape:cy="459.74258"
     inkscape:window-width="1392"
     inkscape:window-height="943"
     inkscape:window-x="234"
     inkscape:window-y="25"
     inkscape:window-maximized="0"
     inkscape:current-layer="svg5" />
  <metadata
     id="metadata1">
Created by potrace 1.10, written by Peter Selinger 2001-2011
</metadata>
  <rect
     width="655.78729"
     height="316.75836"
     fill="#ffffff"
     id="rect1"
     x="451.57452"
     y="47.257812"
     style="stroke-width:1.34763" />
  <g
     transform="matrix(0.15089155,0,0,-0.16312499,448.78267,1033.9931)"
     fill="#000000"
     stroke="none"
     id="g5">
    <path
       d="m 543,5750 c -15,-17 -30,-20 -115,-20 h -98 v -630 c 0,-346 1,-633 3,-637 1,-5 43,-8 92,-8 75,1 92,-2 103,-17 16,-22 68,-24 80,-2 13,24 244,24 267,0 22,-21 61,-20 77,2 11,14 30,17 133,17 103,0 122,-3 133,-17 17,-23 68,-23 81,-1 8,14 23,17 105,14 l 96,-3 v 79 c 0,43 0,330 1,638 l 1,560 -91,3 c -75,2 -95,6 -111,22 -25,25 -45,25 -70,0 -18,-18 -33,-20 -143,-20 -111,0 -123,2 -135,20 -7,11 -20,20 -31,20 -10,0 -26,-9 -36,-20 -16,-18 -31,-20 -137,-20 -105,0 -120,2 -138,20 -11,11 -27,20 -35,20 -8,0 -23,-9 -32,-20 z m 51,-28 c 2,-4 1,-14 -4,-22 -7,-11 -11,-11 -24,-1 -9,8 -16,17 -16,22 0,11 37,12 44,1 z m 351,-2 c 8,-13 -20,-24 -41,-16 -20,8 -9,26 16,26 10,0 22,-5 25,-10 z m 339,1 c 9,-15 -23,-36 -36,-23 -5,5 -7,15 -4,21 9,13 33,14 40,2 z m -742,-40 c 9,-11 26,-55 38,-98 25,-94 87,-213 165,-320 72,-98 71,-97 84,-88 8,4 2,19 -17,43 -51,65 -142,209 -167,266 -13,30 -31,82 -40,115 -15,58 -15,61 5,81 18,18 33,20 138,20 106,0 121,-2 137,-20 10,-11 25,-19 33,-18 14,3 55,-99 82,-204 8,-30 18,-48 27,-48 11,0 13,8 8,33 -13,59 -66,216 -75,222 -5,3 -7,12 -3,20 4,12 30,15 130,15 108,0 128,-3 138,-17 24,-33 -31,-121 -291,-465 -242,-320 -336,-488 -369,-658 -12,-58 -35,-72 -126,-73 -89,-2 -90,-1 -85,73 2,19 4,284 4,588 l 2,552 h 83 c 69,0 85,-3 99,-19 z m 935,-178 c -4,-109 -7,-382 -7,-608 v -410 l -80,1 c -98,1 -111,11 -139,103 -11,36 -43,104 -71,151 -59,99 -57,97 -71,83 -7,-7 2,-28 30,-68 36,-51 101,-196 101,-225 0,-5 -8,-18 -18,-27 -14,-15 -36,-18 -140,-18 -124,0 -142,6 -106,36 33,27 67,119 94,253 13,63 16,365 5,441 -5,30 -12,45 -22,45 -12,0 -13,-14 -8,-77 23,-298 0,-488 -78,-625 -15,-28 -27,-38 -46,-38 -13,0 -32,-7 -42,-16 -14,-12 -42,-15 -138,-15 -153,0 -160,5 -142,93 7,33 16,68 20,77 5,9 29,59 54,111 63,131 125,223 342,510 143,189 245,342 245,367 0,7 11,18 25,23 14,5 25,14 25,20 0,6 34,10 86,10 h 87 z M 586,4479 c 10,-17 -13,-36 -27,-22 -12,12 -4,33 11,33 5,0 12,-5 16,-11 z m 693,-3 c 10,-11 8,-16 -8,-21 -29,-9 -45,3 -30,21 15,18 23,18 38,0 z m -341,-8 c -3,-7 -13,-13 -23,-13 -10,0 -20,6 -22,13 -3,7 5,12 22,12 17,0 25,-5 23,-12 z"
       id="path1" />
    <path
       d="m 915,5060 c -4,-6 15,-36 42,-68 26,-31 49,-59 50,-61 2,-3 8,0 15,7 8,8 -1,25 -36,64 -25,29 -46,56 -46,60 0,11 -18,10 -25,-2 z"
       id="path2" />
    <path
       d="m 3049,5749 c -18,-18 -34,-21 -113,-23 l -91,-1 v -635 -635 h 90 c 79,0 92,-3 112,-22 23,-24 48,-22 70,4 9,12 38,15 131,15 109,0 122,-2 141,-21 27,-27 37,-26 64,2 21,21 31,22 139,20 103,-1 119,-4 137,-22 26,-26 32,-26 65,0 24,19 39,21 122,20 l 94,-2 v 640 641 h -98 c -86,0 -99,2 -110,20 -7,11 -20,20 -31,20 -10,0 -26,-9 -36,-20 -16,-18 -31,-20 -137,-20 -105,0 -120,2 -138,20 -11,11 -27,20 -35,20 -8,0 -23,-9 -32,-20 -16,-18 -30,-20 -135,-20 -105,0 -120,2 -138,20 -26,26 -45,25 -71,-1 z m 55,-27 c 2,-4 1,-14 -4,-22 -7,-11 -11,-11 -24,-1 -9,7 -13,17 -10,22 7,11 31,12 38,1 z m 337,-7 c 0,-5 -9,-11 -21,-13 -20,-3 -27,8 -13,22 10,9 34,3 34,-9 z m 343,6 c 3,-5 -1,-15 -10,-22 -13,-10 -17,-10 -24,1 -5,8 -6,18 -4,22 7,11 31,10 38,-1 z m -734,-41 c 11,-11 22,-32 26,-47 22,-100 93,-263 115,-263 15,0 11,13 -30,101 -21,46 -44,107 -50,136 -12,48 -11,53 8,72 19,19 33,21 140,21 119,0 144,-7 116,-30 -59,-49 -147,-269 -169,-425 -11,-74 -18,-254 -12,-279 14,-56 26,-23 26,72 0,111 20,253 50,360 36,129 123,278 155,266 7,-3 23,4 34,15 19,19 33,21 140,21 138,0 153,-7 130,-62 -20,-51 -92,-160 -203,-307 -293,-388 -402,-569 -444,-737 -24,-98 -37,-108 -134,-111 l -78,-2 v 610 609 h 80 c 66,0 83,-3 100,-20 z m 930,-590 -2,-610 h -78 c -68,0 -82,3 -103,23 -13,12 -28,38 -32,57 -12,58 -80,191 -141,276 -94,132 -186,236 -197,225 -6,-6 18,-43 70,-108 105,-129 163,-214 201,-293 42,-89 49,-135 27,-160 -16,-18 -32,-20 -134,-20 -106,0 -118,2 -135,21 -11,13 -25,19 -37,16 -36,-10 -118,114 -155,236 -10,31 -21,57 -25,57 -18,0 -17,-21 2,-81 24,-73 58,-136 105,-195 18,-23 30,-44 27,-48 -4,-3 -59,-6 -122,-6 -106,0 -118,2 -135,21 -24,29 -15,85 30,193 65,154 163,304 407,628 110,146 207,293 207,314 0,5 12,20 28,35 25,25 34,27 110,28 l 83,1 z m -885,-621 c 0,-7 -8,-15 -17,-17 -18,-3 -25,18 -11,32 10,10 28,1 28,-15 z m 684,12 c 16,-10 6,-31 -14,-31 -17,0 -28,17 -20,30 8,12 16,12 34,1 z m -339,-17 c 0,-9 -7,-14 -17,-12 -25,5 -28,28 -4,28 12,0 21,-6 21,-16 z"
       id="path3" />
    <path
       d="m 3262,5253 c 2,-5 17,-27 33,-50 29,-40 55,-56 55,-32 0,19 -61,89 -77,89 -8,0 -13,-3 -11,-7 z"
       id="path4" />
    <path
       d="m 2108,5132 c -18,-3 -34,-39 -24,-50 3,-3 13,3 21,14 13,18 15,18 45,2 18,-10 43,-18 56,-18 13,0 24,-4 24,-9 0,-18 -33,-21 -66,-5 -42,20 -84,7 -84,-26 0,-25 9,-26 26,-3 12,17 15,17 58,1 43,-16 46,-16 68,2 18,15 20,21 11,31 -9,9 -9,18 -2,31 13,23 4,37 -13,20 -14,-14 -54,-16 -62,-3 -7,11 -36,18 -58,13 z"
       id="path5" />
  </g>
</svg>
