<?xml version="1.0" encoding="UTF-8" standalone="no"?>
<svg
   viewBox="0 0 217.01334 208.89333"
   height="208.89333"
   width="217.01334"
   xml:space="preserve"
   id="svg2"
   version="1.1"
   style="background-color: white;"
   sodipodi:docname="trivial_braid.svg"
   inkscape:version="1.3.2 (091e20e, 2023-11-25)"
   xmlns:inkscape="http://www.inkscape.org/namespaces/inkscape"
   xmlns:sodipodi="http://sodipodi.sourceforge.net/DTD/sodipodi-0.dtd"
   xmlns="http://www.w3.org/2000/svg"
   xmlns:svg="http://www.w3.org/2000/svg"
   xmlns:rdf="http://www.w3.org/1999/02/22-rdf-syntax-ns#"
   xmlns:cc="http://creativecommons.org/ns#"
   xmlns:dc="http://purl.org/dc/elements/1.1/"><sodipodi:namedview
     id="namedview1"
     pagecolor="#ffffff"
     bordercolor="#000000"
     borderopacity="0.25"
     inkscape:showpageshadow="2"
     inkscape:pageopacity="0.0"
     inkscape:pagecheckerboard="0"
     inkscape:deskcolor="#d1d1d1"
     inkscape:zoom="3.2302162"
     inkscape:cx="108.50667"
     inkscape:cy="111.13807"
     inkscape:window-width="1392"
     inkscape:window-height="943"
     inkscape:window-x="151"
     inkscape:window-y="25"
     inkscape:window-maximized="0"
     inkscape:current-layer="g10" /><metadata
     id="metadata8"><rdf:RDF><cc:Work
         rdf:about=""><dc:format>image/svg+xml</dc:format><dc:type
           rdf:resource="http://purl.org/dc/dcmitype/StillImage" /></cc:Work></rdf:RDF></metadata><defs
     id="defs6" /><g
     transform="matrix(1.3333333,0,0,-1.3333333,0,208.89333)"
     id="g10"><g
       transform="translate(4.5117827,22.007635)"
       id="g12"><g
         id="g14"
         transform="matrix(0.84466354,0,0,1.0083444,22.078366,0.11249879)"><g
           id="g16"><g
             id="g18"><path
               id="path20"
               style="fill:none;stroke:#000000;stroke-width:0.79701;stroke-linecap:round;stroke-linejoin:round;stroke-miterlimit:10;stroke-dasharray:none;stroke-opacity:1"
               d="M 0,0 V 113.38724 H 141.73404 V 0 Z" /></g><g
             id="g22"><path
               id="path24"
               style="fill:none;stroke:#000000;stroke-width:0.79701;stroke-linecap:round;stroke-linejoin:round;stroke-miterlimit:10;stroke-dasharray:none;stroke-opacity:1"
               d="M 28.3468,0 V 113.38724" /></g><g
             id="g26"><path
               id="path28"
               style="fill:none;stroke:#000000;stroke-width:0.79701;stroke-linecap:round;stroke-linejoin:round;stroke-miterlimit:10;stroke-dasharray:none;stroke-opacity:1"
               d="M 56.69362,0 V 113.38724" /></g><g
             id="g30"><path
               id="path32"
               style="fill:none;stroke:#000000;stroke-width:0.79701;stroke-linecap:round;stroke-linejoin:round;stroke-miterlimit:10;stroke-dasharray:none;stroke-opacity:1"
               d="M 113.38724,0 V 113.38724" /></g><g
             id="g34"><path
               id="path36"
               style="fill:none;stroke:#000000;stroke-width:0.79701;stroke-linecap:round;stroke-linejoin:round;stroke-miterlimit:10;stroke-dasharray:0.79701, 1.99255;stroke-dashoffset:0;stroke-opacity:1"
               d="M 79.37114,56.69362 H 90.7097" /></g><path
             id="path38"
             style="fill:#000000;fill-opacity:1;fill-rule:nonzero;stroke:none"
             d="m 1.99255,113.38724 c 0,1.10046 -0.89209,1.99255 -1.99255,1.99255 -1.10046,0 -1.99255,-0.89209 -1.99255,-1.99255 0,-1.10048 0.89209,-1.99256 1.99255,-1.99256 1.10046,0 1.99255,0.89208 1.99255,1.99256 z" /><g
             id="g40"><g
               transform="translate(-5.97,118.4)"
               id="g42"><g
                 id="g44"><g
                   transform="translate(-8.99,-140.872)"
                   id="g46"><text
   id="text50"
   style="font-variant:normal;font-weight:normal;font-size:9.9626px;font-family:CMMI10;-inkscape-font-specification:CMMI10;writing-mode:lr-tb;fill:#000000;fill-opacity:1;fill-rule:nonzero;stroke:none"
   transform="matrix(1,0,0,-1,8.99,140.872)"><tspan
     id="tspan48"
     y="0"
     x="0">A</tspan></text>
<text
   id="text54"
   style="font-variant:normal;font-weight:normal;font-size:6.9738px;font-family:CMR7;-inkscape-font-specification:CMR7;writing-mode:lr-tb;fill:#000000;fill-opacity:1;fill-rule:nonzero;stroke:none"
   transform="matrix(1,0,0,-1,16.462,139.378)"><tspan
     id="tspan52"
     y="0"
     x="0">1</tspan></text>
<g
   transform="translate(8.99,140.872)"
   id="g56" /></g></g><g
                 transform="translate(5.97,-118.4)"
                 id="g58" /></g></g><path
             id="path60"
             style="fill:#000000;fill-opacity:1;fill-rule:nonzero;stroke:none"
             d="m 30.33936,113.38724 c 0,1.10046 -0.89208,1.99255 -1.99256,1.99255 -1.10046,0 -1.99255,-0.89209 -1.99255,-1.99255 0,-1.10048 0.89209,-1.99256 1.99255,-1.99256 1.10048,0 1.99256,0.89208 1.99256,1.99256 z" /><g
             id="g62"><g
               transform="translate(22.376,118.4)"
               id="g64"><g
                 id="g66"><g
                   transform="translate(-37.336,-140.872)"
                   id="g68"><text
   id="text72"
   style="font-variant:normal;font-weight:normal;font-size:9.9626px;font-family:CMMI10;-inkscape-font-specification:CMMI10;writing-mode:lr-tb;fill:#000000;fill-opacity:1;fill-rule:nonzero;stroke:none"
   transform="matrix(1,0,0,-1,37.336,140.872)"><tspan
     id="tspan70"
     y="0"
     x="0">A</tspan></text>
<text
   id="text76"
   style="font-variant:normal;font-weight:normal;font-size:6.9738px;font-family:CMR7;-inkscape-font-specification:CMR7;writing-mode:lr-tb;fill:#000000;fill-opacity:1;fill-rule:nonzero;stroke:none"
   transform="matrix(1,0,0,-1,44.808,139.378)"><tspan
     id="tspan74"
     y="0"
     x="0">2</tspan></text>
<g
   transform="translate(37.336,140.872)"
   id="g78" /></g></g><g
                 transform="translate(-22.376,-118.4)"
                 id="g80" /></g></g><path
             id="path82"
             style="fill:#000000;fill-opacity:1;fill-rule:nonzero;stroke:none"
             d="m 115.37979,113.38724 c 0,1.10046 -0.89209,1.99255 -1.99255,1.99255 -1.10048,0 -1.99256,-0.89209 -1.99256,-1.99255 0,-1.10048 0.89208,-1.99256 1.99256,-1.99256 1.10046,0 1.99255,0.89208 1.99255,1.99256 z" /><g
             id="g84"><g
               transform="translate(106.939,118.4)"
               id="g86"><g
                 id="g88"><g
                   transform="translate(-121.899,-140.872)"
                   id="g90"><text
   id="text94"
   style="font-variant:normal;font-weight:normal;font-size:9.9626px;font-family:CMMI10;-inkscape-font-specification:CMMI10;writing-mode:lr-tb;fill:#000000;fill-opacity:1;fill-rule:nonzero;stroke:none"
   transform="matrix(1,0,0,-1,121.899,140.872)"><tspan
     id="tspan92"
     y="0"
     x="0">A</tspan></text>
<text
   id="text98"
   style="font-variant:normal;font-weight:normal;font-size:6.9738px;font-family:CMMI7;-inkscape-font-specification:CMMI7;writing-mode:lr-tb;fill:#000000;fill-opacity:1;fill-rule:nonzero;stroke:none"
   transform="matrix(1,0,0,-1,129.371,139.378)"><tspan
     id="tspan96"
     y="0"
     x="0">n</tspan></text>
<g
   transform="translate(121.899,140.872)"
   id="g100" /></g></g><g
                 transform="translate(-106.939,-118.4)"
                 id="g102" /></g></g><path
             id="path104"
             style="fill:#000000;fill-opacity:1;fill-rule:nonzero;stroke:none"
             d="M 1.99255,0 C 1.99255,1.10046 1.10046,1.99255 0,1.99255 -1.10046,1.99255 -1.99255,1.10046 -1.99255,0 c 0,-1.10046 0.89209,-1.99255 1.99255,-1.99255 1.10046,0 1.99255,0.89209 1.99255,1.99255 z" /><g
             id="g106"><g
               transform="translate(-5.97,-11.009)"
               id="g108"><g
                 id="g110"><g
                   transform="translate(-8.99,-11.463)"
                   id="g112"><text
   id="text116"
   style="font-variant:normal;font-weight:normal;font-size:9.9626px;font-family:CMMI10;-inkscape-font-specification:CMMI10;writing-mode:lr-tb;fill:#000000;fill-opacity:1;fill-rule:nonzero;stroke:none"
   transform="matrix(1,0,0,-1,8.99,11.463)"><tspan
     id="tspan114"
     y="0"
     x="0">A</tspan></text>
<text
   id="text120"
   style="font-variant:normal;font-weight:normal;font-size:6.9738px;font-family:CMSY7;-inkscape-font-specification:CMSY7;writing-mode:lr-tb;fill:#000000;fill-opacity:1;fill-rule:nonzero;stroke:none"
   transform="matrix(1,0,0,-1,16.462,15.078)"><tspan
     id="tspan118"
     y="0"
     x="0">′</tspan></text>
<text
   id="text124"
   style="font-variant:normal;font-weight:normal;font-size:6.9738px;font-family:CMR7;-inkscape-font-specification:CMR7;writing-mode:lr-tb;fill:#000000;fill-opacity:1;fill-rule:nonzero;stroke:none"
   transform="matrix(1,0,0,-1,16.462,8.99)"><tspan
     id="tspan122"
     y="0"
     x="0">1</tspan></text>
<g
   transform="translate(8.99,11.463)"
   id="g126" /></g></g><g
                 transform="translate(5.97,11.009)"
                 id="g128" /></g></g><path
             id="path130"
             style="fill:#000000;fill-opacity:1;fill-rule:nonzero;stroke:none"
             d="m 30.33936,0 c 0,1.10046 -0.89208,1.99255 -1.99256,1.99255 -1.10046,0 -1.99255,-0.89209 -1.99255,-1.99255 0,-1.10046 0.89209,-1.99255 1.99255,-1.99255 1.10048,0 1.99256,0.89209 1.99256,1.99255 z" /><g
             id="g132"><g
               transform="translate(22.376,-11.009)"
               id="g134"><g
                 id="g136"><g
                   transform="translate(-37.336,-11.463)"
                   id="g138"><text
   id="text142"
   style="font-variant:normal;font-weight:normal;font-size:9.9626px;font-family:CMMI10;-inkscape-font-specification:CMMI10;writing-mode:lr-tb;fill:#000000;fill-opacity:1;fill-rule:nonzero;stroke:none"
   transform="matrix(1,0,0,-1,37.336,11.463)"><tspan
     id="tspan140"
     y="0"
     x="0">A</tspan></text>
<text
   id="text146"
   style="font-variant:normal;font-weight:normal;font-size:6.9738px;font-family:CMSY7;-inkscape-font-specification:CMSY7;writing-mode:lr-tb;fill:#000000;fill-opacity:1;fill-rule:nonzero;stroke:none"
   transform="matrix(1,0,0,-1,44.808,15.078)"><tspan
     id="tspan144"
     y="0"
     x="0">′</tspan></text>
<text
   id="text150"
   style="font-variant:normal;font-weight:normal;font-size:6.9738px;font-family:CMR7;-inkscape-font-specification:CMR7;writing-mode:lr-tb;fill:#000000;fill-opacity:1;fill-rule:nonzero;stroke:none"
   transform="matrix(1,0,0,-1,44.808,8.99)"><tspan
     id="tspan148"
     y="0"
     x="0">2</tspan></text>
<g
   transform="translate(37.336,11.463)"
   id="g152" /></g></g><g
                 transform="translate(-22.376,11.009)"
                 id="g154" /></g></g><path
             id="path156"
             style="fill:#000000;fill-opacity:1;fill-rule:nonzero;stroke:none"
             d="m 115.37979,0 c 0,1.10046 -0.89209,1.99255 -1.99255,1.99255 -1.10048,0 -1.99256,-0.89209 -1.99256,-1.99255 0,-1.10046 0.89208,-1.99255 1.99256,-1.99255 1.10046,0 1.99255,0.89209 1.99255,1.99255 z" /><g
             id="g158"><g
               transform="translate(106.939,-11.009)"
               id="g160"><g
                 id="g162"><g
                   transform="translate(-121.899,-11.463)"
                   id="g164"><text
   id="text168"
   style="font-variant:normal;font-weight:normal;font-size:9.9626px;font-family:CMMI10;-inkscape-font-specification:CMMI10;writing-mode:lr-tb;fill:#000000;fill-opacity:1;fill-rule:nonzero;stroke:none"
   transform="matrix(1,0,0,-1,121.899,11.463)"><tspan
     id="tspan166"
     y="0"
     x="0">A</tspan></text>
<text
   id="text172"
   style="font-variant:normal;font-weight:normal;font-size:6.9738px;font-family:CMSY7;-inkscape-font-specification:CMSY7;writing-mode:lr-tb;fill:#000000;fill-opacity:1;fill-rule:nonzero;stroke:none"
   transform="matrix(1,0,0,-1,129.371,15.078)"><tspan
     id="tspan170"
     y="0"
     x="0">′</tspan></text>
<text
   id="text176"
   style="font-variant:normal;font-weight:normal;font-size:6.9738px;font-family:CMMI7;-inkscape-font-specification:CMMI7;writing-mode:lr-tb;fill:#000000;fill-opacity:1;fill-rule:nonzero;stroke:none"
   transform="matrix(1,0,0,-1,129.371,9)"><tspan
     id="tspan174"
     y="0"
     x="0">n</tspan></text>
<g
   transform="translate(121.899,11.463)"
   id="g178" /></g></g><g
                 transform="translate(-106.939,11.009)"
                 id="g180" /></g></g></g></g><path
         id="path156-3"
         style="fill:#000000;fill-opacity:1;fill-rule:nonzero;stroke:none"
         d="m 72.22166,114.1854 c 0,1.10046 -0.89209,1.99255 -1.99255,1.99255 -1.10048,0 -1.99256,-0.89209 -1.99256,-1.99255 0,-1.10046 0.89208,-1.99255 1.99256,-1.99255 1.10046,0 1.99255,0.89209 1.99255,1.99255 z" /><path
         id="path156-0"
         style="fill:#000000;fill-opacity:1;fill-rule:nonzero;stroke:none"
         d="m 72.168208,0.24387644 c 0,1.10045996 -0.89209,1.99254996 -1.99255,1.99254996 -1.10048,0 -1.99256,-0.89209 -1.99256,-1.99254996 0,-1.10046 0.89208,-1.99255004 1.99256,-1.99255004 1.10046,0 1.99255,0.89209004 1.99255,1.99255004 z" /></g></g></svg>
